<?xml version="1.0" encoding="UTF-8"?>
<!DOCTYPE svg PUBLIC "-//W3C//DTD SVG 1.1//EN" "http://www.w3.org/Graphics/SVG/1.1/DTD/svg11.dtd">
<svg xmlns="http://www.w3.org/2000/svg" version="1.1" width="512px" height="512px" style="shape-rendering:geometricPrecision; text-rendering:geometricPrecision; image-rendering:optimizeQuality; fill-rule:evenodd; clip-rule:evenodd" xmlns:xlink="http://www.w3.org/1999/xlink">
<g><path style="opacity:1" fill="#fb8906" d="M 224.5,-0.5 C 230.167,-0.5 235.833,-0.5 241.5,-0.5C 240.167,18.5 240.167,37.5 241.5,56.5C 240.5,56.5 239.5,56.5 238.5,56.5C 234.154,56.6657 229.821,56.499 225.5,56C 225,55.5 224.5,55 224,54.5C 223.5,44.172 223.334,33.8387 223.5,23.5C 223.199,15.4144 223.533,7.41438 224.5,-0.5 Z"/></g>
<g><path style="opacity:0.997" fill="#fe9901" d="M 241.5,-0.5 C 273.167,-0.5 304.833,-0.5 336.5,-0.5C 337.479,11.4197 337.812,23.4197 337.5,35.5C 337.666,41.8421 337.5,48.1754 337,54.5C 336.5,55 336,55.5 335.5,56C 331.179,56.499 326.846,56.6657 322.5,56.5C 319.833,56.5 317.167,56.5 314.5,56.5C 311.5,56.5 308.5,56.5 305.5,56.5C 288.833,56.5 272.167,56.5 255.5,56.5C 252.833,56.5 250.167,56.5 247.5,56.5C 245.5,56.5 243.5,56.5 241.5,56.5C 240.167,37.5 240.167,18.5 241.5,-0.5 Z"/></g>
<g><path style="opacity:1" fill="#f7d101" d="M 312.5,19.5 C 296.163,19.3334 279.83,19.5001 263.5,20C 259.304,22.9811 258.471,26.8144 261,31.5C 261.75,32.1258 262.584,32.6258 263.5,33C 279.83,33.4999 296.163,33.6666 312.5,33.5C 291.337,34.6627 270.004,34.8294 248.5,34C 240.5,29 240.5,24 248.5,19C 270.004,18.1706 291.337,18.3373 312.5,19.5 Z"/></g>
<g><path style="opacity:1" fill="#fde802" d="M 312.5,19.5 C 317.876,21.5851 319.376,25.2518 317,30.5C 315.871,32.1412 314.371,33.1412 312.5,33.5C 296.163,33.6666 279.83,33.4999 263.5,33C 262.584,32.6258 261.75,32.1258 261,31.5C 258.471,26.8144 259.304,22.9811 263.5,20C 279.83,19.5001 296.163,19.3334 312.5,19.5 Z"/></g>
<g><path style="opacity:0.992" fill="#fee4dd" d="M 223.5,23.5 C 223.334,33.8387 223.5,44.172 224,54.5C 224.5,55 225,55.5 225.5,56C 229.821,56.499 234.154,56.6657 238.5,56.5C 238.5,61.1667 238.5,65.8333 238.5,70.5C 230.493,70.3336 222.493,70.5003 214.5,71C 213.361,76.4162 213.194,81.9162 214,87.5C 215.049,89.1066 216.549,89.7733 218.5,89.5C 218.5,112.5 218.5,135.5 218.5,158.5C 213.167,158.5 207.833,158.5 202.5,158.5C 202.666,151.492 202.5,144.492 202,137.5C 201.5,137 201,136.5 200.5,136C 183.503,135.5 166.503,135.333 149.5,135.5C 144.156,135.334 138.823,135.501 133.5,136C 133,136.5 132.5,137 132,137.5C 131.5,144.492 131.334,151.492 131.5,158.5C 126.821,158.334 122.155,158.501 117.5,159C 116.299,159.903 115.465,161.069 115,162.5C 114.5,172.828 114.334,183.161 114.5,193.5C 108.833,193.5 103.167,193.5 97.5,193.5C 95.9232,183.25 90.2566,176.25 80.5,172.5C 63.8814,169.133 53.2148,175.466 48.5,191.5C 43.7935,193.2 38.7935,194.033 33.5,194C 32.3333,194.5 31.5,195.333 31,196.5C 30.5,229.498 30.3334,262.498 30.5,295.5C 24.0375,295.301 17.7041,294.301 11.5,292.5C 4.62099,196.112 39.9543,119.612 117.5,63C 149.739,41.6413 185.072,28.4746 223.5,23.5 Z"/></g>
<g><path style="opacity:0.992" fill="#fee5dd" d="M 337.5,35.5 C 381.673,51.0199 418.339,77.0199 447.5,113.5C 416.832,113.333 386.165,113.5 355.5,114C 354.667,114.833 353.833,115.667 353,116.5C 352.5,173.166 352.333,229.832 352.5,286.5C 349.366,284.707 346.033,283.374 342.5,282.5C 342.5,218.167 342.5,153.833 342.5,89.5C 344.144,89.7135 345.644,89.3802 347,88.5C 347.497,86.1902 347.663,83.8568 347.5,81.5C 347.789,77.8936 347.456,74.3936 346.5,71C 338.507,70.5003 330.507,70.3336 322.5,70.5C 322.5,65.8333 322.5,61.1667 322.5,56.5C 326.846,56.6657 331.179,56.499 335.5,56C 336,55.5 336.5,55 337,54.5C 337.5,48.1754 337.666,41.8421 337.5,35.5 Z"/></g>
<g><path style="opacity:1" fill="#81a4b3" d="M 238.5,56.5 C 239.5,56.5 240.5,56.5 241.5,56.5C 243.5,56.5 245.5,56.5 247.5,56.5C 247.5,61.1667 247.5,65.8333 247.5,70.5C 244.833,70.5 242.167,70.5 239.5,70.5C 239.167,70.5 238.833,70.5 238.5,70.5C 238.5,65.8333 238.5,61.1667 238.5,56.5 Z"/></g>
<g><path style="opacity:1" fill="#92bbc5" d="M 247.5,56.5 C 250.167,56.5 252.833,56.5 255.5,56.5C 255.5,61.1667 255.5,65.8333 255.5,70.5C 252.833,70.5 250.167,70.5 247.5,70.5C 247.5,65.8333 247.5,61.1667 247.5,56.5 Z"/></g>
<g><path style="opacity:1" fill="#fee5dd" d="M 255.5,56.5 C 272.167,56.5 288.833,56.5 305.5,56.5C 305.5,61.1667 305.5,65.8333 305.5,70.5C 288.833,70.5 272.167,70.5 255.5,70.5C 255.5,65.8333 255.5,61.1667 255.5,56.5 Z"/></g>
<g><path style="opacity:1" fill="#81a4b3" d="M 305.5,56.5 C 308.5,56.5 311.5,56.5 314.5,56.5C 314.5,61.1667 314.5,65.8333 314.5,70.5C 311.5,70.5 308.5,70.5 305.5,70.5C 305.5,65.8333 305.5,61.1667 305.5,56.5 Z"/></g>
<g><path style="opacity:1" fill="#92bbc5" d="M 314.5,56.5 C 317.167,56.5 319.833,56.5 322.5,56.5C 322.5,61.1667 322.5,65.8333 322.5,70.5C 319.833,70.5 317.167,70.5 314.5,70.5C 314.5,65.8333 314.5,61.1667 314.5,56.5 Z"/></g>
<g><path style="opacity:1" fill="#465a61" d="M 238.5,70.5 C 238.833,70.5 239.167,70.5 239.5,70.5C 239.211,74.1064 239.544,77.6064 240.5,81C 276.165,81.5 311.832,81.6667 347.5,81.5C 347.663,83.8568 347.497,86.1902 347,88.5C 345.644,89.3802 344.144,89.7135 342.5,89.5C 309.5,89.5 276.5,89.5 243.5,89.5C 235.167,89.5 226.833,89.5 218.5,89.5C 216.549,89.7733 215.049,89.1066 214,87.5C 213.194,81.9162 213.361,76.4162 214.5,71C 222.493,70.5003 230.493,70.3336 238.5,70.5 Z"/></g>
<g><path style="opacity:1" fill="#596c76" d="M 239.5,70.5 C 242.167,70.5 244.833,70.5 247.5,70.5C 250.167,70.5 252.833,70.5 255.5,70.5C 272.167,70.5 288.833,70.5 305.5,70.5C 308.5,70.5 311.5,70.5 314.5,70.5C 317.167,70.5 319.833,70.5 322.5,70.5C 330.507,70.3336 338.507,70.5003 346.5,71C 347.456,74.3936 347.789,77.8936 347.5,81.5C 311.832,81.6667 276.165,81.5 240.5,81C 239.544,77.6064 239.211,74.1064 239.5,70.5 Z"/></g>
<g><path style="opacity:1" fill="#fff2de" d="M 362.5,78.5 C 371.915,78.0828 381.248,78.5828 390.5,80C 395.936,84.7855 396.77,90.2855 393,96.5C 391.421,98.0412 389.587,99.2078 387.5,100C 378.091,100.917 368.758,100.584 359.5,99C 354.37,94.7823 353.204,89.6157 356,83.5C 357.805,81.1743 359.972,79.5077 362.5,78.5 Z"/></g>
<g><path style="opacity:1" fill="#567b85" d="M 218.5,89.5 C 226.833,89.5 235.167,89.5 243.5,89.5C 243.5,96.1667 243.5,102.833 243.5,109.5C 240.881,109.232 238.381,109.565 236,110.5C 235.333,118.167 235.333,125.833 236,133.5C 238.381,134.435 240.881,134.768 243.5,134.5C 243.5,139.5 243.5,144.5 243.5,149.5C 240.881,149.232 238.381,149.565 236,150.5C 235.333,158.167 235.333,165.833 236,173.5C 238.381,174.435 240.881,174.768 243.5,174.5C 243.5,179.5 243.5,184.5 243.5,189.5C 240.881,189.232 238.381,189.565 236,190.5C 235.333,198.167 235.333,205.833 236,213.5C 238.381,214.435 240.881,214.768 243.5,214.5C 243.5,219.5 243.5,224.5 243.5,229.5C 240.881,229.232 238.381,229.565 236,230.5C 235.333,238.167 235.333,245.833 236,253.5C 238.381,254.435 240.881,254.768 243.5,254.5C 243.5,265.833 243.5,277.167 243.5,288.5C 235.741,292.526 227.407,294.859 218.5,295.5C 218.5,249.833 218.5,204.167 218.5,158.5C 218.5,135.5 218.5,112.5 218.5,89.5 Z"/></g>
<g><path style="opacity:1" fill="#688d98" d="M 243.5,89.5 C 276.5,89.5 309.5,89.5 342.5,89.5C 342.5,153.833 342.5,218.167 342.5,282.5C 333.968,288.237 324.634,292.237 314.5,294.5C 314.666,287.492 314.5,280.492 314,273.5C 313.692,272.692 313.192,272.025 312.5,271.5C 297.215,270.516 281.882,270.183 266.5,270.5C 260.824,270.334 255.157,270.501 249.5,271C 248.667,271.833 247.833,272.667 247,273.5C 246.186,278.02 246.353,282.354 247.5,286.5C 246.486,287.674 245.153,288.34 243.5,288.5C 243.5,277.167 243.5,265.833 243.5,254.5C 245.167,254.5 246.833,254.5 248.5,254.5C 252.437,254.793 256.27,254.46 260,253.5C 260.667,245.833 260.667,238.167 260,230.5C 256.27,229.54 252.437,229.207 248.5,229.5C 246.833,229.5 245.167,229.5 243.5,229.5C 243.5,224.5 243.5,219.5 243.5,214.5C 248.844,214.666 254.177,214.499 259.5,214C 260.833,206 260.833,198 259.5,190C 254.177,189.501 248.844,189.334 243.5,189.5C 243.5,184.5 243.5,179.5 243.5,174.5C 245.167,174.5 246.833,174.5 248.5,174.5C 252.437,174.793 256.27,174.46 260,173.5C 260.667,165.833 260.667,158.167 260,150.5C 256.27,149.54 252.437,149.207 248.5,149.5C 246.833,149.5 245.167,149.5 243.5,149.5C 243.5,144.5 243.5,139.5 243.5,134.5C 245.167,134.5 246.833,134.5 248.5,134.5C 252.437,134.793 256.27,134.46 260,133.5C 260.667,125.833 260.667,118.167 260,110.5C 256.27,109.54 252.437,109.207 248.5,109.5C 246.833,109.5 245.167,109.5 243.5,109.5C 243.5,102.833 243.5,96.1667 243.5,89.5 Z"/></g>
<g><path style="opacity:1" fill="#fff2de" d="M 142.5,90.5 C 152.839,90.3335 163.172,90.5002 173.5,91C 180.8,94.4382 182.967,99.9382 180,107.5C 178.457,109.378 176.624,110.878 174.5,112C 162.762,112.935 151.095,112.602 139.5,111C 134.37,106.782 133.204,101.616 136,95.5C 137.965,93.4497 140.132,91.783 142.5,90.5 Z"/></g>
<g><path style="opacity:1" fill="#99e5fb" d="M 243.5,109.5 C 245.167,109.5 246.833,109.5 248.5,109.5C 246.422,116.898 245.922,124.565 247,132.5C 247.717,133.044 248.217,133.711 248.5,134.5C 246.833,134.5 245.167,134.5 243.5,134.5C 240.881,134.768 238.381,134.435 236,133.5C 235.333,125.833 235.333,118.167 236,110.5C 238.381,109.565 240.881,109.232 243.5,109.5 Z"/></g>
<g><path style="opacity:1" fill="#c7eefd" d="M 248.5,109.5 C 252.437,109.207 256.27,109.54 260,110.5C 260.667,118.167 260.667,125.833 260,133.5C 256.27,134.46 252.437,134.793 248.5,134.5C 248.217,133.711 247.717,133.044 247,132.5C 245.922,124.565 246.422,116.898 248.5,109.5 Z"/></g>
<g><path style="opacity:1" fill="#99e3f9" d="M 280.5,109.5 C 279.167,117.833 279.167,126.167 280.5,134.5C 269.426,137.259 265.093,133.092 267.5,122C 265.093,110.908 269.426,106.741 280.5,109.5 Z"/></g>
<g><path style="opacity:1" fill="#c5ecfb" d="M 280.5,109.5 C 291.574,106.741 295.907,110.908 293.5,122C 295.907,133.092 291.574,137.259 280.5,134.5C 279.167,126.167 279.167,117.833 280.5,109.5 Z"/></g>
<g><path style="opacity:1" fill="#fafdfe" d="M 301.5,109.5 C 309.42,109.185 317.253,109.518 325,110.5C 325.814,118.413 325.647,126.246 324.5,134C 316.587,134.814 308.754,134.647 301,133.5C 300.2,125.421 300.367,117.421 301.5,109.5 Z"/></g>
<g><path style="opacity:0.997" fill="#f89675" d="M 447.5,113.5 C 456.751,113.182 465.917,113.515 475,114.5C 476.467,129.07 476.967,143.736 476.5,158.5C 475.501,203.997 475.168,249.664 475.5,295.5C 465.957,296.078 456.957,294.412 448.5,290.5C 448.5,288.833 448.5,287.167 448.5,285.5C 458.336,287.327 462.003,283.327 459.5,273.5C 462.003,263.673 458.336,259.673 448.5,261.5C 448.5,258.833 448.5,256.167 448.5,253.5C 458.336,255.327 462.003,251.327 459.5,241.5C 462.003,231.673 458.336,227.673 448.5,229.5C 448.5,226.833 448.5,224.167 448.5,221.5C 458.336,223.327 462.003,219.327 459.5,209.5C 462.003,199.673 458.336,195.673 448.5,197.5C 444.486,197.334 440.486,197.501 436.5,198C 435.418,199.33 434.751,200.83 434.5,202.5C 431.833,202.5 429.167,202.5 426.5,202.5C 426.703,200.61 426.037,199.11 424.5,198C 411.171,197.5 397.837,197.333 384.5,197.5C 379.57,197.197 374.737,197.531 370,198.5C 368.86,207.404 368.36,216.404 368.5,225.5C 368.36,234.596 368.86,243.596 370,252.5C 374.737,253.469 379.57,253.803 384.5,253.5C 397.5,253.5 410.5,253.5 423.5,253.5C 423.5,256.167 423.5,258.833 423.5,261.5C 420.833,261.5 418.167,261.5 415.5,261.5C 411.486,261.334 407.486,261.501 403.5,262C 402.874,262.75 402.374,263.584 402,264.5C 401.333,270.5 401.333,276.5 402,282.5C 402.374,283.416 402.874,284.25 403.5,285C 407.486,285.499 411.486,285.666 415.5,285.5C 418.167,285.5 420.833,285.5 423.5,285.5C 423.5,285.833 423.5,286.167 423.5,286.5C 406.562,295.47 388.562,297.97 369.5,294C 363.242,292.531 357.575,290.031 352.5,286.5C 352.333,229.832 352.5,173.166 353,116.5C 353.833,115.667 354.667,114.833 355.5,114C 386.165,113.5 416.832,113.333 447.5,113.5 Z"/></g>
<g><path style="opacity:1" fill="#fff2de" d="M 82.5,127.5 C 89.9209,127.109 97.2542,127.609 104.5,129C 109.936,133.785 110.77,139.285 107,145.5C 105.421,147.041 103.587,148.208 101.5,149C 95.1667,149.667 88.8333,149.667 82.5,149C 75.8435,146.386 73.3435,141.553 75,134.5C 76.7668,131.228 79.2668,128.895 82.5,127.5 Z"/></g>
<g><path style="opacity:1" fill="#fbab90" d="M 382.5,133.5 C 382.217,134.289 381.717,134.956 381,135.5C 380.333,142.167 380.333,148.833 381,155.5C 381.717,156.044 382.217,156.711 382.5,157.5C 378.486,157.666 374.486,157.499 370.5,157C 369.874,156.25 369.374,155.416 369,154.5C 368.333,148.5 368.333,142.5 369,136.5C 369.374,135.584 369.874,134.75 370.5,134C 374.486,133.501 378.486,133.334 382.5,133.5 Z"/></g>
<g><path style="opacity:1" fill="#fdcaba" d="M 382.5,133.5 C 392.336,131.673 396.003,135.673 393.5,145.5C 396.003,155.327 392.336,159.327 382.5,157.5C 382.217,156.711 381.717,156.044 381,155.5C 380.333,148.833 380.333,142.167 381,135.5C 381.717,134.956 382.217,134.289 382.5,133.5 Z"/></g>
<g><path style="opacity:1" fill="#fbab90" d="M 415.5,133.5 C 415.217,134.289 414.717,134.956 414,135.5C 413.333,142.167 413.333,148.833 414,155.5C 414.717,156.044 415.217,156.711 415.5,157.5C 411.486,157.666 407.486,157.499 403.5,157C 402.874,156.25 402.374,155.416 402,154.5C 401.333,148.5 401.333,142.5 402,136.5C 402.374,135.584 402.874,134.75 403.5,134C 407.486,133.501 411.486,133.334 415.5,133.5 Z"/></g>
<g><path style="opacity:1" fill="#fdcaba" d="M 415.5,133.5 C 425.336,131.673 429.003,135.673 426.5,145.5C 429.003,155.327 425.336,159.327 415.5,157.5C 415.217,156.711 414.717,156.044 414,155.5C 413.333,148.833 413.333,142.167 414,135.5C 414.717,134.956 415.217,134.289 415.5,133.5 Z"/></g>
<g><path style="opacity:1" fill="#fafbfc" d="M 437.5,133.5 C 444.175,133.334 450.842,133.5 457.5,134C 458,134.5 458.5,135 459,135.5C 459.667,142.167 459.667,148.833 459,155.5C 458.5,156 458,156.5 457.5,157C 450.45,157.797 443.45,157.63 436.5,156.5C 434.924,148.585 435.257,140.919 437.5,133.5 Z"/></g>
<g><path style="opacity:1" fill="#fd4957" d="M 149.5,135.5 C 148.167,152.833 148.167,170.167 149.5,187.5C 146.5,187.5 143.5,187.5 140.5,187.5C 137.315,187.98 134.481,187.314 132,185.5C 131.5,176.506 131.334,167.506 131.5,158.5C 131.334,151.492 131.5,144.492 132,137.5C 132.5,137 133,136.5 133.5,136C 138.823,135.501 144.156,135.334 149.5,135.5 Z"/></g>
<g><path style="opacity:1" fill="#fe646f" d="M 149.5,135.5 C 166.503,135.333 183.503,135.5 200.5,136C 201,136.5 201.5,137 202,137.5C 202.5,144.492 202.666,151.492 202.5,158.5C 202.666,167.506 202.5,176.506 202,185.5C 201.5,186 201,186.5 200.5,187C 183.503,187.5 166.503,187.667 149.5,187.5C 148.167,170.167 148.167,152.833 149.5,135.5 Z"/></g>
<g><path style="opacity:1" fill="#99e5fb" d="M 243.5,149.5 C 245.167,149.5 246.833,149.5 248.5,149.5C 246.422,156.898 245.922,164.565 247,172.5C 247.717,173.044 248.217,173.711 248.5,174.5C 246.833,174.5 245.167,174.5 243.5,174.5C 240.881,174.768 238.381,174.435 236,173.5C 235.333,165.833 235.333,158.167 236,150.5C 238.381,149.565 240.881,149.232 243.5,149.5 Z"/></g>
<g><path style="opacity:1" fill="#c7eefd" d="M 248.5,149.5 C 252.437,149.207 256.27,149.54 260,150.5C 260.667,158.167 260.667,165.833 260,173.5C 256.27,174.46 252.437,174.793 248.5,174.5C 248.217,173.711 247.717,173.044 247,172.5C 245.922,164.565 246.422,156.898 248.5,149.5 Z"/></g>
<g><path style="opacity:1" fill="#99e3f9" d="M 280.5,149.5 C 279.167,157.833 279.167,166.167 280.5,174.5C 269.426,177.259 265.093,173.092 267.5,162C 265.093,150.908 269.426,146.741 280.5,149.5 Z"/></g>
<g><path style="opacity:1" fill="#c5ecfb" d="M 280.5,149.5 C 291.574,146.741 295.907,150.908 293.5,162C 295.907,173.092 291.574,177.259 280.5,174.5C 279.167,166.167 279.167,157.833 280.5,149.5 Z"/></g>
<g><path style="opacity:1" fill="#99e5fb" d="M 313.5,149.5 C 311.422,156.898 310.922,164.565 312,172.5C 312.717,173.044 313.217,173.711 313.5,174.5C 309.486,174.666 305.486,174.499 301.5,174C 300.167,166 300.167,158 301.5,150C 305.486,149.501 309.486,149.334 313.5,149.5 Z"/></g>
<g><path style="opacity:1" fill="#c7eefd" d="M 313.5,149.5 C 317.437,149.207 321.27,149.54 325,150.5C 325.667,158.167 325.667,165.833 325,173.5C 321.27,174.46 317.437,174.793 313.5,174.5C 313.217,173.711 312.717,173.044 312,172.5C 310.922,164.565 311.422,156.898 313.5,149.5 Z"/></g>
<g><path style="opacity:1" fill="#f0f9fd" d="M 131.5,158.5 C 131.334,167.506 131.5,176.506 132,185.5C 134.481,187.314 137.315,187.98 140.5,187.5C 140.5,191.833 140.5,196.167 140.5,200.5C 132.669,199.335 129.669,202.668 131.5,210.5C 129.669,218.332 132.669,221.665 140.5,220.5C 140.5,224.5 140.5,228.5 140.5,232.5C 132.669,231.335 129.669,234.668 131.5,242.5C 129.669,250.332 132.669,253.665 140.5,252.5C 140.5,256.5 140.5,260.5 140.5,264.5C 137.315,264.02 134.481,264.686 132,266.5C 131.333,271.833 131.333,277.167 132,282.5C 132.5,283 133,283.5 133.5,284C 138.823,284.499 144.156,284.666 149.5,284.5C 153.702,284.183 157.702,284.517 161.5,285.5C 147.002,293.865 131.335,297.198 114.5,295.5C 114.5,261.5 114.5,227.5 114.5,193.5C 114.334,183.161 114.5,172.828 115,162.5C 115.465,161.069 116.299,159.903 117.5,159C 122.155,158.501 126.821,158.334 131.5,158.5 Z"/></g>
<g><path style="opacity:1" fill="#fefefe" d="M 202.5,158.5 C 207.833,158.5 213.167,158.5 218.5,158.5C 218.5,204.167 218.5,249.833 218.5,295.5C 201.671,297.407 186.337,293.74 172.5,284.5C 181.839,284.666 191.173,284.5 200.5,284C 201,283.5 201.5,283 202,282.5C 202.667,277.167 202.667,271.833 202,266.5C 201.5,266 201,265.5 200.5,265C 183.503,264.5 166.503,264.333 149.5,264.5C 146.5,264.5 143.5,264.5 140.5,264.5C 140.5,260.5 140.5,256.5 140.5,252.5C 143.5,252.5 146.5,252.5 149.5,252.5C 166.503,252.667 183.503,252.5 200.5,252C 201,251.5 201.5,251 202,250.5C 202.667,245.167 202.667,239.833 202,234.5C 201.5,234 201,233.5 200.5,233C 183.503,232.5 166.503,232.333 149.5,232.5C 146.5,232.5 143.5,232.5 140.5,232.5C 140.5,228.5 140.5,224.5 140.5,220.5C 143.5,220.5 146.5,220.5 149.5,220.5C 166.503,220.667 183.503,220.5 200.5,220C 201,219.5 201.5,219 202,218.5C 202.667,213.167 202.667,207.833 202,202.5C 201.5,202 201,201.5 200.5,201C 183.503,200.5 166.503,200.333 149.5,200.5C 146.5,200.5 143.5,200.5 140.5,200.5C 140.5,196.167 140.5,191.833 140.5,187.5C 143.5,187.5 146.5,187.5 149.5,187.5C 166.503,187.667 183.503,187.5 200.5,187C 201,186.5 201.5,186 202,185.5C 202.5,176.506 202.666,167.506 202.5,158.5 Z"/></g>
<g><path style="opacity:0.981" fill="#fee4dc" d="M 476.5,158.5 C 496.69,200.974 504.357,245.641 499.5,292.5C 491.693,294.922 483.693,295.922 475.5,295.5C 475.168,249.664 475.501,203.997 476.5,158.5 Z"/></g>
<g><path style="opacity:1" fill="#fbab90" d="M 382.5,165.5 C 382.217,166.289 381.717,166.956 381,167.5C 380.333,174.167 380.333,180.833 381,187.5C 381.717,188.044 382.217,188.711 382.5,189.5C 378.486,189.666 374.486,189.499 370.5,189C 369.874,188.25 369.374,187.416 369,186.5C 368.333,180.5 368.333,174.5 369,168.5C 369.374,167.584 369.874,166.75 370.5,166C 374.486,165.501 378.486,165.334 382.5,165.5 Z"/></g>
<g><path style="opacity:1" fill="#fdcaba" d="M 382.5,165.5 C 392.336,163.673 396.003,167.673 393.5,177.5C 396.003,187.327 392.336,191.327 382.5,189.5C 382.217,188.711 381.717,188.044 381,187.5C 380.333,180.833 380.333,174.167 381,167.5C 381.717,166.956 382.217,166.289 382.5,165.5 Z"/></g>
<g><path style="opacity:1" fill="#fafbfc" d="M 404.5,165.5 C 411.175,165.334 417.842,165.5 424.5,166C 425,166.5 425.5,167 426,167.5C 426.667,174.167 426.667,180.833 426,187.5C 425.5,188 425,188.5 424.5,189C 417.45,189.797 410.45,189.63 403.5,188.5C 401.924,180.585 402.257,172.919 404.5,165.5 Z"/></g>
<g><path style="opacity:1" fill="#fbab90" d="M 448.5,165.5 C 448.217,166.289 447.717,166.956 447,167.5C 446.333,174.167 446.333,180.833 447,187.5C 447.717,188.044 448.217,188.711 448.5,189.5C 444.486,189.666 440.486,189.499 436.5,189C 435.874,188.25 435.374,187.416 435,186.5C 434.333,180.5 434.333,174.5 435,168.5C 435.374,167.584 435.874,166.75 436.5,166C 440.486,165.501 444.486,165.334 448.5,165.5 Z"/></g>
<g><path style="opacity:1" fill="#fdcaba" d="M 448.5,165.5 C 458.336,163.673 462.003,167.673 459.5,177.5C 462.003,187.327 458.336,191.327 448.5,189.5C 448.217,188.711 447.717,188.044 447,187.5C 446.333,180.833 446.333,174.167 447,167.5C 447.717,166.956 448.217,166.289 448.5,165.5 Z"/></g>
<g><path style="opacity:1" fill="#475b62" d="M 80.5,172.5 C 65.0867,180.905 60.92,193.238 68,209.5C 71.1269,214.46 75.2936,218.127 80.5,220.5C 63.931,223.889 53.2644,217.555 48.5,201.5C 48.5,198.167 48.5,194.833 48.5,191.5C 53.2148,175.466 63.8814,169.133 80.5,172.5 Z"/></g>
<g><path style="opacity:1" fill="#596c76" d="M 80.5,172.5 C 90.2566,176.25 95.9232,183.25 97.5,193.5C 98.1481,206.548 92.4815,215.548 80.5,220.5C 75.2936,218.127 71.1269,214.46 68,209.5C 60.92,193.238 65.0867,180.905 80.5,172.5 Z"/></g>
<g><path style="opacity:1" fill="#fafdfe" d="M 243.5,189.5 C 248.844,189.334 254.177,189.501 259.5,190C 260.833,198 260.833,206 259.5,214C 254.177,214.499 248.844,214.666 243.5,214.5C 240.881,214.768 238.381,214.435 236,213.5C 235.333,205.833 235.333,198.167 236,190.5C 238.381,189.565 240.881,189.232 243.5,189.5 Z"/></g>
<g><path style="opacity:1" fill="#99e3f9" d="M 280.5,189.5 C 279.167,197.833 279.167,206.167 280.5,214.5C 269.426,217.259 265.093,213.092 267.5,202C 265.093,190.908 269.426,186.741 280.5,189.5 Z"/></g>
<g><path style="opacity:1" fill="#c5ecfb" d="M 280.5,189.5 C 291.574,186.741 295.907,190.908 293.5,202C 295.907,213.092 291.574,217.259 280.5,214.5C 279.167,206.167 279.167,197.833 280.5,189.5 Z"/></g>
<g><path style="opacity:1" fill="#99e5fb" d="M 313.5,189.5 C 311.422,196.898 310.922,204.565 312,212.5C 312.717,213.044 313.217,213.711 313.5,214.5C 309.486,214.666 305.486,214.499 301.5,214C 300.167,206 300.167,198 301.5,190C 305.486,189.501 309.486,189.334 313.5,189.5 Z"/></g>
<g><path style="opacity:1" fill="#c7eefd" d="M 313.5,189.5 C 317.437,189.207 321.27,189.54 325,190.5C 325.667,198.167 325.667,205.833 325,213.5C 321.27,214.46 317.437,214.793 313.5,214.5C 313.217,213.711 312.717,213.044 312,212.5C 310.922,204.565 311.422,196.898 313.5,189.5 Z"/></g>
<g><path style="opacity:1" fill="#537983" d="M 48.5,191.5 C 48.5,194.833 48.5,198.167 48.5,201.5C 47.5064,210.652 47.1731,219.985 47.5,229.5C 46.5041,229.414 45.6708,229.748 45,230.5C 44.5,252.164 44.3334,273.831 44.5,295.5C 39.7019,296.744 35.0352,296.744 30.5,295.5C 30.3334,262.498 30.5,229.498 31,196.5C 31.5,195.333 32.3333,194.5 33.5,194C 38.7935,194.033 43.7935,193.2 48.5,191.5 Z"/></g>
<g><path style="opacity:1" fill="#678d98" d="M 97.5,193.5 C 103.167,193.5 108.833,193.5 114.5,193.5C 114.5,227.5 114.5,261.5 114.5,295.5C 110.159,295.342 106.159,294.342 102.5,292.5C 102.667,271.831 102.5,251.164 102,230.5C 99.9592,229.577 97.7925,229.244 95.5,229.5C 92.9208,229.083 90.7542,229.75 89,231.5C 88.8317,250.005 88.3317,268.338 87.5,286.5C 85.0313,285.431 82.6979,284.098 80.5,282.5C 80.6666,265.163 80.4999,247.83 80,230.5C 78.3005,229.594 76.4672,229.261 74.5,229.5C 71.8806,229.232 69.3806,229.565 67,230.5C 66.5,249.83 66.3334,269.164 66.5,288.5C 64.1469,290.343 61.4802,291.677 58.5,292.5C 58.6666,271.831 58.5,251.164 58,230.5C 55.9592,229.577 53.7925,229.244 51.5,229.5C 50.1667,229.5 48.8333,229.5 47.5,229.5C 47.1731,219.985 47.5064,210.652 48.5,201.5C 53.2644,217.555 63.931,223.889 80.5,220.5C 92.4815,215.548 98.1481,206.548 97.5,193.5 Z"/></g>
<g><path style="opacity:1" fill="#faab90" d="M 384.5,197.5 C 382.701,200.505 382.034,203.838 382.5,207.5C 379.881,207.232 377.381,207.565 375,208.5C 374.333,211.5 374.333,214.5 375,217.5C 376.699,218.406 378.533,218.739 380.5,218.5C 380.207,221.754 380.874,224.754 382.5,227.5C 382.334,235.507 382.5,243.507 383,251.5C 383.717,252.044 384.217,252.711 384.5,253.5C 379.57,253.803 374.737,253.469 370,252.5C 368.86,243.596 368.36,234.596 368.5,225.5C 368.36,216.404 368.86,207.404 370,198.5C 374.737,197.531 379.57,197.197 384.5,197.5 Z"/></g>
<g><path style="opacity:1" fill="#fdcbbb" d="M 384.5,197.5 C 397.837,197.333 411.171,197.5 424.5,198C 426.037,199.11 426.703,200.61 426.5,202.5C 423.916,203.048 422.916,204.715 423.5,207.5C 409.833,207.5 396.167,207.5 382.5,207.5C 382.034,203.838 382.701,200.505 384.5,197.5 Z"/></g>
<g><path style="opacity:1" fill="#faab90" d="M 448.5,197.5 C 447.058,198.82 446.392,200.486 446.5,202.5C 442.833,202.5 439.167,202.5 435.5,202.5C 435.167,202.5 434.833,202.5 434.5,202.5C 434.751,200.83 435.418,199.33 436.5,198C 440.486,197.501 444.486,197.334 448.5,197.5 Z"/></g>
<g><path style="opacity:1" fill="#fdcaba" d="M 448.5,197.5 C 458.336,195.673 462.003,199.673 459.5,209.5C 462.003,219.327 458.336,223.327 448.5,221.5C 448.666,215.491 448.499,209.491 448,203.5C 447.617,202.944 447.117,202.611 446.5,202.5C 446.392,200.486 447.058,198.82 448.5,197.5 Z"/></g>
<g><path style="opacity:1" fill="#9ae6fc" d="M 140.5,200.5 C 143.5,200.5 146.5,200.5 149.5,200.5C 148.167,207.167 148.167,213.833 149.5,220.5C 146.5,220.5 143.5,220.5 140.5,220.5C 132.669,221.665 129.669,218.332 131.5,210.5C 129.669,202.668 132.669,199.335 140.5,200.5 Z"/></g>
<g><path style="opacity:1" fill="#c8effd" d="M 149.5,200.5 C 166.503,200.333 183.503,200.5 200.5,201C 201,201.5 201.5,202 202,202.5C 202.667,207.833 202.667,213.167 202,218.5C 201.5,219 201,219.5 200.5,220C 183.503,220.5 166.503,220.667 149.5,220.5C 148.167,213.833 148.167,207.167 149.5,200.5 Z"/></g>
<g><path style="opacity:1" fill="#537983" d="M 426.5,202.5 C 429.167,202.5 431.833,202.5 434.5,202.5C 434.833,202.5 435.167,202.5 435.5,202.5C 434.509,229.426 434.176,256.426 434.5,283.5C 432.932,282.527 431.265,282.36 429.5,283C 427.609,284.442 425.609,285.609 423.5,286.5C 423.5,286.167 423.5,285.833 423.5,285.5C 423.5,277.5 423.5,269.5 423.5,261.5C 423.5,258.833 423.5,256.167 423.5,253.5C 423.5,241.833 423.5,230.167 423.5,218.5C 423.5,214.833 423.5,211.167 423.5,207.5C 422.916,204.715 423.916,203.048 426.5,202.5 Z"/></g>
<g><path style="opacity:1" fill="#678d98" d="M 435.5,202.5 C 439.167,202.5 442.833,202.5 446.5,202.5C 447.117,202.611 447.617,202.944 448,203.5C 448.499,209.491 448.666,215.491 448.5,221.5C 448.5,224.167 448.5,226.833 448.5,229.5C 448.5,237.5 448.5,245.5 448.5,253.5C 448.5,256.167 448.5,258.833 448.5,261.5C 448.5,269.5 448.5,277.5 448.5,285.5C 448.5,287.167 448.5,288.833 448.5,290.5C 443.38,289.039 438.713,286.706 434.5,283.5C 434.176,256.426 434.509,229.426 435.5,202.5 Z"/></g>
<g><path style="opacity:1" fill="#678d97" d="M 382.5,207.5 C 396.167,207.5 409.833,207.5 423.5,207.5C 423.5,211.167 423.5,214.833 423.5,218.5C 419.5,218.5 415.5,218.5 411.5,218.5C 401.167,218.5 390.833,218.5 380.5,218.5C 378.533,218.739 376.699,218.406 375,217.5C 374.333,214.5 374.333,211.5 375,208.5C 377.381,207.565 379.881,207.232 382.5,207.5 Z"/></g>
<g><path style="opacity:1" fill="#fbfdfe" d="M 380.5,218.5 C 390.833,218.5 401.167,218.5 411.5,218.5C 412.212,224.899 409.545,229.066 403.5,231C 398.167,231.667 392.833,231.667 387.5,231C 385.677,230.003 384.01,228.836 382.5,227.5C 380.874,224.754 380.207,221.754 380.5,218.5 Z"/></g>
<g><path style="opacity:1" fill="#fdccbc" d="M 411.5,218.5 C 415.5,218.5 419.5,218.5 423.5,218.5C 423.5,230.167 423.5,241.833 423.5,253.5C 410.5,253.5 397.5,253.5 384.5,253.5C 384.217,252.711 383.717,252.044 383,251.5C 382.5,243.507 382.334,235.507 382.5,227.5C 384.01,228.836 385.677,230.003 387.5,231C 392.833,231.667 398.167,231.667 403.5,231C 409.545,229.066 412.212,224.899 411.5,218.5 Z"/></g>
<g><path style="opacity:1" fill="#7ca1b1" d="M 47.5,229.5 C 48.8333,229.5 50.1667,229.5 51.5,229.5C 50.5116,251.091 50.1783,272.758 50.5,294.5C 48.4352,294.517 46.4352,294.85 44.5,295.5C 44.3334,273.831 44.5,252.164 45,230.5C 45.6708,229.748 46.5041,229.414 47.5,229.5 Z"/></g>
<g><path style="opacity:1" fill="#8db9c4" d="M 51.5,229.5 C 53.7925,229.244 55.9592,229.577 58,230.5C 58.5,251.164 58.6666,271.831 58.5,292.5C 55.779,292.963 53.1123,293.629 50.5,294.5C 50.1783,272.758 50.5116,251.091 51.5,229.5 Z"/></g>
<g><path style="opacity:1" fill="#7ca1b1" d="M 74.5,229.5 C 74.2172,230.289 73.7172,230.956 73,231.5C 72.5001,249.497 72.3334,267.497 72.5,285.5C 70.9699,287.346 68.9699,288.346 66.5,288.5C 66.3334,269.164 66.5,249.83 67,230.5C 69.3806,229.565 71.8806,229.232 74.5,229.5 Z"/></g>
<g><path style="opacity:1" fill="#8db9c4" d="M 74.5,229.5 C 76.4672,229.261 78.3005,229.594 80,230.5C 80.4999,247.83 80.6666,265.163 80.5,282.5C 77.8598,283.448 75.1931,284.448 72.5,285.5C 72.3334,267.497 72.5001,249.497 73,231.5C 73.7172,230.956 74.2172,230.289 74.5,229.5 Z"/></g>
<g><path style="opacity:1" fill="#7ba0b0" d="M 95.5,229.5 C 94.5124,249.758 94.1791,270.091 94.5,290.5C 91.9684,289.404 89.6351,288.071 87.5,286.5C 88.3317,268.338 88.8317,250.005 89,231.5C 90.7542,229.75 92.9208,229.083 95.5,229.5 Z"/></g>
<g><path style="opacity:1" fill="#8db9c5" d="M 95.5,229.5 C 97.7925,229.244 99.9592,229.577 102,230.5C 102.5,251.164 102.667,271.831 102.5,292.5C 99.6592,292.44 96.9925,291.774 94.5,290.5C 94.1791,270.091 94.5124,249.758 95.5,229.5 Z"/></g>
<g><path style="opacity:1" fill="#99e5fb" d="M 243.5,229.5 C 245.167,229.5 246.833,229.5 248.5,229.5C 246.422,236.898 245.922,244.565 247,252.5C 247.717,253.044 248.217,253.711 248.5,254.5C 246.833,254.5 245.167,254.5 243.5,254.5C 240.881,254.768 238.381,254.435 236,253.5C 235.333,245.833 235.333,238.167 236,230.5C 238.381,229.565 240.881,229.232 243.5,229.5 Z"/></g>
<g><path style="opacity:1" fill="#c7eefd" d="M 248.5,229.5 C 252.437,229.207 256.27,229.54 260,230.5C 260.667,238.167 260.667,245.833 260,253.5C 256.27,254.46 252.437,254.793 248.5,254.5C 248.217,253.711 247.717,253.044 247,252.5C 245.922,244.565 246.422,236.898 248.5,229.5 Z"/></g>
<g><path style="opacity:1" fill="#99e3f9" d="M 280.5,229.5 C 279.167,237.833 279.167,246.167 280.5,254.5C 269.426,257.259 265.093,253.092 267.5,242C 265.093,230.908 269.426,226.741 280.5,229.5 Z"/></g>
<g><path style="opacity:1" fill="#c5ecfb" d="M 280.5,229.5 C 291.574,226.741 295.907,230.908 293.5,242C 295.907,253.092 291.574,257.259 280.5,254.5C 279.167,246.167 279.167,237.833 280.5,229.5 Z"/></g>
<g><path style="opacity:1" fill="#fafdfe" d="M 301.5,229.5 C 309.42,229.185 317.253,229.518 325,230.5C 325.814,238.413 325.647,246.246 324.5,254C 316.587,254.814 308.754,254.647 301,253.5C 300.2,245.421 300.367,237.421 301.5,229.5 Z"/></g>
<g><path style="opacity:1" fill="#fdcaba" d="M 448.5,229.5 C 458.336,227.673 462.003,231.673 459.5,241.5C 462.003,251.327 458.336,255.327 448.5,253.5C 448.5,245.5 448.5,237.5 448.5,229.5 Z"/></g>
<g><path style="opacity:1" fill="#9ae6fc" d="M 140.5,232.5 C 143.5,232.5 146.5,232.5 149.5,232.5C 148.167,239.167 148.167,245.833 149.5,252.5C 146.5,252.5 143.5,252.5 140.5,252.5C 132.669,253.665 129.669,250.332 131.5,242.5C 129.669,234.668 132.669,231.335 140.5,232.5 Z"/></g>
<g><path style="opacity:1" fill="#c8effd" d="M 149.5,232.5 C 166.503,232.333 183.503,232.5 200.5,233C 201,233.5 201.5,234 202,234.5C 202.667,239.833 202.667,245.167 202,250.5C 201.5,251 201,251.5 200.5,252C 183.503,252.5 166.503,252.667 149.5,252.5C 148.167,245.833 148.167,239.167 149.5,232.5 Z"/></g>
<g><path style="opacity:1" fill="#fafbfc" d="M 371.5,261.5 C 378.175,261.334 384.842,261.5 391.5,262C 392,262.5 392.5,263 393,263.5C 393.667,270.167 393.667,276.833 393,283.5C 392.5,284 392,284.5 391.5,285C 384.45,285.797 377.45,285.63 370.5,284.5C 368.924,276.585 369.257,268.919 371.5,261.5 Z"/></g>
<g><path style="opacity:1" fill="#fbab90" d="M 415.5,261.5 C 415.217,262.289 414.717,262.956 414,263.5C 413.333,270.167 413.333,276.833 414,283.5C 414.717,284.044 415.217,284.711 415.5,285.5C 411.486,285.666 407.486,285.499 403.5,285C 402.874,284.25 402.374,283.416 402,282.5C 401.333,276.5 401.333,270.5 402,264.5C 402.374,263.584 402.874,262.75 403.5,262C 407.486,261.501 411.486,261.334 415.5,261.5 Z"/></g>
<g><path style="opacity:1" fill="#fdcbbb" d="M 415.5,261.5 C 418.167,261.5 420.833,261.5 423.5,261.5C 423.5,269.5 423.5,277.5 423.5,285.5C 420.833,285.5 418.167,285.5 415.5,285.5C 415.217,284.711 414.717,284.044 414,283.5C 413.333,276.833 413.333,270.167 414,263.5C 414.717,262.956 415.217,262.289 415.5,261.5 Z"/></g>
<g><path style="opacity:1" fill="#fdcaba" d="M 448.5,261.5 C 458.336,259.673 462.003,263.673 459.5,273.5C 462.003,283.327 458.336,287.327 448.5,285.5C 448.5,277.5 448.5,269.5 448.5,261.5 Z"/></g>
<g><path style="opacity:1" fill="#9ae6fc" d="M 140.5,264.5 C 143.5,264.5 146.5,264.5 149.5,264.5C 148.167,271.167 148.167,277.833 149.5,284.5C 144.156,284.666 138.823,284.499 133.5,284C 133,283.5 132.5,283 132,282.5C 131.333,277.167 131.333,271.833 132,266.5C 134.481,264.686 137.315,264.02 140.5,264.5 Z"/></g>
<g><path style="opacity:1" fill="#c8effd" d="M 149.5,264.5 C 166.503,264.333 183.503,264.5 200.5,265C 201,265.5 201.5,266 202,266.5C 202.667,271.833 202.667,277.167 202,282.5C 201.5,283 201,283.5 200.5,284C 191.173,284.5 181.839,284.666 172.5,284.5C 170.844,283.854 169.177,283.187 167.5,282.5C 165.506,283.489 163.506,284.489 161.5,285.5C 157.702,284.517 153.702,284.183 149.5,284.5C 148.167,277.833 148.167,271.167 149.5,264.5 Z"/></g>
<g><path style="opacity:1" fill="#465a62" d="M 266.5,270.5 C 265.878,271.627 265.045,272.627 264,273.5C 264.102,277.956 263.268,281.956 261.5,285.5C 259.494,284.489 257.494,283.489 255.5,282.5C 252.843,283.828 250.176,285.162 247.5,286.5C 246.353,282.354 246.186,278.02 247,273.5C 247.833,272.667 248.667,271.833 249.5,271C 255.157,270.501 260.824,270.334 266.5,270.5 Z"/></g>
<g><path style="opacity:1" fill="#586c77" d="M 266.5,270.5 C 281.882,270.183 297.215,270.516 312.5,271.5C 313.192,272.025 313.692,272.692 314,273.5C 314.5,280.492 314.666,287.492 314.5,294.5C 295.606,298.355 277.94,295.355 261.5,285.5C 263.268,281.956 264.102,277.956 264,273.5C 265.045,272.627 265.878,271.627 266.5,270.5 Z"/></g>
<g><path style="opacity:0.999" fill="#05bff9" d="M 80.5,282.5 C 82.6979,284.098 85.0313,285.431 87.5,286.5C 89.6351,288.071 91.9684,289.404 94.5,290.5C 96.9925,291.774 99.6592,292.44 102.5,292.5C 106.159,294.342 110.159,295.342 114.5,295.5C 131.335,297.198 147.002,293.865 161.5,285.5C 163.506,284.489 165.506,283.489 167.5,282.5C 169.177,283.187 170.844,283.854 172.5,284.5C 186.337,293.74 201.671,297.407 218.5,295.5C 227.407,294.859 235.741,292.526 243.5,288.5C 245.153,288.34 246.486,287.674 247.5,286.5C 250.176,285.162 252.843,283.828 255.5,282.5C 257.494,283.489 259.494,284.489 261.5,285.5C 277.94,295.355 295.606,298.355 314.5,294.5C 324.634,292.237 333.968,288.237 342.5,282.5C 346.033,283.374 349.366,284.707 352.5,286.5C 357.575,290.031 363.242,292.531 369.5,294C 388.562,297.97 406.562,295.47 423.5,286.5C 425.609,285.609 427.609,284.442 429.5,283C 431.265,282.36 432.932,282.527 434.5,283.5C 438.713,286.706 443.38,289.039 448.5,290.5C 456.957,294.412 465.957,296.078 475.5,295.5C 483.693,295.922 491.693,294.922 499.5,292.5C 498.014,309.765 494.347,326.432 488.5,342.5C 465.186,349.296 443.52,345.963 423.5,332.5C 395.498,349.807 367.498,349.807 339.5,332.5C 311.498,349.807 283.498,349.807 255.5,332.5C 227.498,349.807 199.498,349.807 171.5,332.5C 143.498,349.807 115.498,349.807 87.5,332.5C 67.4761,345.913 45.8094,349.246 22.5,342.5C 16.653,326.432 12.9863,309.765 11.5,292.5C 17.7041,294.301 24.0375,295.301 30.5,295.5C 35.0352,296.744 39.7019,296.744 44.5,295.5C 46.4352,294.85 48.4352,294.517 50.5,294.5C 53.1123,293.629 55.779,292.963 58.5,292.5C 61.4802,291.677 64.1469,290.343 66.5,288.5C 68.9699,288.346 70.9699,287.346 72.5,285.5C 75.1931,284.448 77.8598,283.448 80.5,282.5 Z"/></g>
<g><path style="opacity:0.998" fill="#25a6fd" d="M 488.5,342.5 C 482.423,362.983 473.423,381.983 461.5,399.5C 447.617,398.761 434.951,394.428 423.5,386.5C 395.441,403.778 367.441,403.778 339.5,386.5C 311.441,403.778 283.441,403.778 255.5,386.5C 227.441,403.778 199.441,403.778 171.5,386.5C 143.441,403.778 115.441,403.778 87.5,386.5C 75.9293,394.024 63.2627,398.357 49.5,399.5C 37.577,381.983 28.577,362.983 22.5,342.5C 45.8094,349.246 67.4761,345.913 87.5,332.5C 115.498,349.807 143.498,349.807 171.5,332.5C 199.498,349.807 227.498,349.807 255.5,332.5C 283.498,349.807 311.498,349.807 339.5,332.5C 367.498,349.807 395.498,349.807 423.5,332.5C 443.52,345.963 465.186,349.296 488.5,342.5 Z"/></g>
<g><path style="opacity:1" fill="#0593fc" d="M 461.5,399.5 C 417.758,465.151 356.424,502.485 277.5,511.5C 262.833,511.5 248.167,511.5 233.5,511.5C 154.576,502.485 93.2425,465.151 49.5,399.5C 63.2627,398.357 75.9293,394.024 87.5,386.5C 115.441,403.778 143.441,403.778 171.5,386.5C 199.441,403.778 227.441,403.778 255.5,386.5C 283.441,403.778 311.441,403.778 339.5,386.5C 367.441,403.778 395.441,403.778 423.5,386.5C 434.951,394.428 447.617,398.761 461.5,399.5 Z"/></g>
</svg>
