<?xml version="1.0" encoding="UTF-8"?>
<!DOCTYPE svg PUBLIC "-//W3C//DTD SVG 1.1//EN" "http://www.w3.org/Graphics/SVG/1.1/DTD/svg11.dtd">
<svg xmlns="http://www.w3.org/2000/svg" version="1.1" width="512px" height="512px" style="shape-rendering:geometricPrecision; text-rendering:geometricPrecision; image-rendering:optimizeQuality; fill-rule:evenodd; clip-rule:evenodd" xmlns:xlink="http://www.w3.org/1999/xlink">
<g><path style="opacity:0.996" fill="#84f9f3" d="M 232.5,-0.5 C 247.833,-0.5 263.167,-0.5 278.5,-0.5C 340.27,5.72218 392.937,30.7222 436.5,74.5C 430.631,74.6844 425.464,76.6844 421,80.5C 408.592,67.0452 394.426,64.8786 378.5,74C 366.097,84.4385 363.097,97.1052 369.5,112C 363.546,111.991 357.879,113.158 352.5,115.5C 349.648,112.386 346.648,109.22 343.5,106C 340.522,104.118 337.355,102.618 334,101.5C 333.229,75.059 319.729,63.2257 293.5,66C 283.764,69.7388 276.598,76.2388 272,85.5C 261.125,82.7664 252.125,85.7664 245,94.5C 243.878,96.4068 243.045,98.4068 242.5,100.5C 214.866,90.5668 186.866,81.7335 158.5,74C 135.368,68.9098 112.035,65.0765 88.5,62.5C 88.5,62.1667 88.5,61.8333 88.5,61.5C 117.008,35.9034 150.008,18.07 187.5,8C 202.476,4.28484 217.476,1.45151 232.5,-0.5 Z"/></g>
<g><path style="opacity:1" fill="#84d149" d="M 88.5,62.5 C 112.035,65.0765 135.368,68.9098 158.5,74C 186.866,81.7335 214.866,90.5668 242.5,100.5C 272.685,113.787 303.685,125.12 335.5,134.5C 386.583,149.22 438.917,156.887 492.5,157.5C 496.428,166.617 499.761,175.95 502.5,185.5C 434.833,185.5 367.167,185.5 299.5,185.5C 290.167,185.5 280.833,185.5 271.5,185.5C 238.052,183.596 205.385,177.096 173.5,166C 150.428,157.734 130.762,144.567 114.5,126.5C 115.795,122.577 117.628,118.91 120,115.5C 120.843,109.808 118.343,107.641 112.5,109C 109.933,111.396 107.6,113.896 105.5,116.5C 94.1358,100.085 88.4691,82.0846 88.5,62.5 Z"/></g>
<g><path style="opacity:1" fill="#60b550" d="M 88.5,61.5 C 88.5,61.8333 88.5,62.1667 88.5,62.5C 88.4691,82.0846 94.1358,100.085 105.5,116.5C 85.9672,137.926 68.6338,160.926 53.5,185.5C 38.5,185.5 23.5,185.5 8.5,185.5C 22.7616,135.955 49.4283,94.6216 88.5,61.5 Z"/></g>
<g><path style="opacity:1" fill="#389f4d" d="M 352.5,115.5 C 345.006,120.32 339.34,126.653 335.5,134.5C 303.685,125.12 272.685,113.787 242.5,100.5C 243.045,98.4068 243.878,96.4068 245,94.5C 252.125,85.7664 261.125,82.7664 272,85.5C 276.598,76.2388 283.764,69.7388 293.5,66C 319.729,63.2257 333.229,75.059 334,101.5C 337.355,102.618 340.522,104.118 343.5,106C 346.648,109.22 349.648,112.386 352.5,115.5 Z"/></g>
<g><path style="opacity:1" fill="#60b550" d="M 436.5,74.5 C 460.871,98.2185 479.538,125.885 492.5,157.5C 438.917,156.887 386.583,149.22 335.5,134.5C 339.34,126.653 345.006,120.32 352.5,115.5C 357.879,113.158 363.546,111.991 369.5,112C 363.097,97.1052 366.097,84.4385 378.5,74C 394.426,64.8786 408.592,67.0452 421,80.5C 425.464,76.6844 430.631,74.6844 436.5,74.5 Z"/></g>
<g><path style="opacity:1" fill="#a2e96e" d="M 114.5,126.5 C 103.852,145.465 94.519,165.132 86.5,185.5C 77.5124,207.128 69.5124,229.128 62.5,251.5C 57.7003,266.366 53.367,281.366 49.5,296.5C 42.9121,319.52 37.5788,342.854 33.5,366.5C 30.3019,365.964 27.6353,366.631 25.5,368.5C 16.1452,350.109 9.14525,330.776 4.5,310.5C 8.70992,290.523 14.3766,270.857 21.5,251.5C 30.5783,228.678 41.245,206.678 53.5,185.5C 68.6338,160.926 85.9672,137.926 105.5,116.5C 107.6,113.896 109.933,111.396 112.5,109C 118.343,107.641 120.843,109.808 120,115.5C 117.628,118.91 115.795,122.577 114.5,126.5 Z"/></g>
<g><path style="opacity:1" fill="#60b550" d="M 114.5,126.5 C 130.762,144.567 150.428,157.734 173.5,166C 205.385,177.096 238.052,183.596 271.5,185.5C 209.833,185.5 148.167,185.5 86.5,185.5C 94.519,165.132 103.852,145.465 114.5,126.5 Z"/></g>
<g><path style="opacity:0.993" fill="#64b6eb" d="M 8.5,185.5 C 23.5,185.5 38.5,185.5 53.5,185.5C 41.245,206.678 30.5783,228.678 21.5,251.5C 14.1667,251.5 6.83333,251.5 -0.5,251.5C -0.5,245.167 -0.5,238.833 -0.5,232.5C 1.319,216.733 4.319,201.066 8.5,185.5 Z"/></g>
<g><path style="opacity:1" fill="#64b5eb" d="M 86.5,185.5 C 148.167,185.5 209.833,185.5 271.5,185.5C 280.833,185.5 290.167,185.5 299.5,185.5C 290.203,189.739 285.703,197.073 286,207.5C 283.744,212.757 279.91,216.257 274.5,218C 266.833,218.333 259.167,218.667 251.5,219C 242.359,222.776 238.526,229.609 240,239.5C 241.833,245.333 245.667,249.167 251.5,251C 280.333,251.167 309.167,251.333 338,251.5C 367.174,251.5 396.008,250.833 424.5,249.5C 433.848,270.555 441.848,292.222 448.5,314.5C 437.204,301.036 424.204,289.536 409.5,280C 405.323,277.162 400.823,274.995 396,273.5C 391.918,274.159 390.584,276.492 392,280.5C 401.2,292.19 409.367,304.524 416.5,317.5C 410.974,317.179 405.64,317.512 400.5,318.5C 396.397,315.115 391.73,312.782 386.5,311.5C 382.986,311.824 381.319,313.824 381.5,317.5C 371.49,315.754 364.323,319.421 360,328.5C 360.941,338.126 357.108,344.959 348.5,349C 321.833,349.333 295.167,349.667 268.5,350C 256.288,354.923 252.788,363.423 258,375.5C 260.264,378.433 263.098,380.6 266.5,382C 294.831,382.5 323.165,382.667 351.5,382.5C 327.123,389.07 303.123,397.07 279.5,406.5C 271.521,408.933 263.854,411.933 256.5,415.5C 217.838,399.891 178.171,387.391 137.5,378C 120.336,375.329 103.336,372.496 86.5,369.5C 92.7818,351.297 100.782,333.964 110.5,317.5C 167.834,317.667 225.168,317.5 282.5,317C 293.419,314.017 297.919,306.85 296,295.5C 293.744,290.243 289.91,286.743 284.5,285C 263.167,284.667 241.833,284.333 220.5,284C 211.115,280.247 206.782,273.247 207.5,263C 205.627,257.056 201.627,253.389 195.5,252C 164.168,251.5 132.835,251.333 101.5,251.5C 106.776,238.946 112.609,226.613 119,214.5C 120.513,210.229 119.013,207.895 114.5,207.5C 112.056,208.767 109.723,210.267 107.5,212C 95.6432,224.928 84.6432,238.428 74.5,252.5C 70.7016,251.517 66.7016,251.183 62.5,251.5C 69.5124,229.128 77.5124,207.128 86.5,185.5 Z"/></g>
<g><path style="opacity:1" fill="#3188ca" d="M 299.5,185.5 C 367.167,185.5 434.833,185.5 502.5,185.5C 505.526,195.632 507.526,205.965 508.5,216.5C 499.458,218.061 490.124,219.227 480.5,220C 472.893,225.049 469.393,232.215 470,241.5C 466.37,248.568 460.537,251.902 452.5,251.5C 441.496,235.722 429.163,220.889 415.5,207C 409.141,203.775 406.308,205.608 407,212.5C 413.391,224.613 419.224,236.946 424.5,249.5C 396.008,250.833 367.174,251.5 338,251.5C 309.167,251.333 280.333,251.167 251.5,251C 245.667,249.167 241.833,245.333 240,239.5C 238.526,229.609 242.359,222.776 251.5,219C 259.167,218.667 266.833,218.333 274.5,218C 279.91,216.257 283.744,212.757 286,207.5C 285.703,197.073 290.203,189.739 299.5,185.5 Z"/></g>
<g><path style="opacity:1" fill="#a2e96f" d="M 452.5,251.5 C 465.382,272.596 476.716,294.596 486.5,317.5C 490.308,326.591 493.308,335.924 495.5,345.5C 493.287,352.916 490.287,359.916 486.5,366.5C 478.167,366.5 469.833,366.5 461.5,366.5C 457.791,348.996 453.457,331.662 448.5,314.5C 441.848,292.222 433.848,270.555 424.5,249.5C 419.224,236.946 413.391,224.613 407,212.5C 406.308,205.608 409.141,203.775 415.5,207C 429.163,220.889 441.496,235.722 452.5,251.5 Z"/></g>
<g><path style="opacity:1" fill="#60b551" d="M 101.5,251.5 C 91.7377,272.636 84.071,294.303 78.5,316.5C 65.6458,331.377 55.6458,348.043 48.5,366.5C 43.5,366.5 38.5,366.5 33.5,366.5C 37.5788,342.854 42.9121,319.52 49.5,296.5C 57.3119,281.544 65.6452,266.877 74.5,252.5C 84.6432,238.428 95.6432,224.928 107.5,212C 109.723,210.267 112.056,208.767 114.5,207.5C 119.013,207.895 120.513,210.229 119,214.5C 112.609,226.613 106.776,238.946 101.5,251.5 Z"/></g>
<g><path style="opacity:0.995" fill="#63b5eb" d="M 508.5,216.5 C 509.645,221.811 510.645,227.144 511.5,232.5C 511.5,247.833 511.5,263.167 511.5,278.5C 509.946,292.373 507.279,306.04 503.5,319.5C 498.265,317.55 492.598,316.883 486.5,317.5C 476.716,294.596 465.382,272.596 452.5,251.5C 460.537,251.902 466.37,248.568 470,241.5C 469.393,232.215 472.893,225.049 480.5,220C 490.124,219.227 499.458,218.061 508.5,216.5 Z"/></g>
<g><path style="opacity:1" fill="#3389ca" d="M -0.5,251.5 C 6.83333,251.5 14.1667,251.5 21.5,251.5C 14.3766,270.857 8.70992,290.523 4.5,310.5C 2.65743,299.727 0.990767,289.06 -0.5,278.5C -0.5,269.5 -0.5,260.5 -0.5,251.5 Z"/></g>
<g><path style="opacity:1" fill="#388bc5" d="M 62.5,251.5 C 66.7016,251.183 70.7016,251.517 74.5,252.5C 65.6452,266.877 57.3119,281.544 49.5,296.5C 53.367,281.366 57.7003,266.366 62.5,251.5 Z"/></g>
<g><path style="opacity:1" fill="#3188ca" d="M 101.5,251.5 C 132.835,251.333 164.168,251.5 195.5,252C 201.627,253.389 205.627,257.056 207.5,263C 206.782,273.247 211.115,280.247 220.5,284C 241.833,284.333 263.167,284.667 284.5,285C 289.91,286.743 293.744,290.243 296,295.5C 297.919,306.85 293.419,314.017 282.5,317C 225.168,317.5 167.834,317.667 110.5,317.5C 117.333,305.496 125.166,294.163 134,283.5C 135.539,279.195 134.206,276.528 130,275.5C 109.47,284.855 92.3035,298.521 78.5,316.5C 84.071,294.303 91.7377,272.636 101.5,251.5 Z"/></g>
<g><path style="opacity:1" fill="#60b551" d="M 448.5,314.5 C 453.457,331.662 457.791,348.996 461.5,366.5C 457.689,367.645 453.689,367.812 449.5,367C 443.063,357.573 436.063,348.739 428.5,340.5C 425.261,332.353 421.261,324.686 416.5,317.5C 409.367,304.524 401.2,292.19 392,280.5C 390.584,276.492 391.918,274.159 396,273.5C 400.823,274.995 405.323,277.162 409.5,280C 424.204,289.536 437.204,301.036 448.5,314.5 Z"/></g>
<g><path style="opacity:1" fill="#85d249" d="M 110.5,317.5 C 100.782,333.964 92.7818,351.297 86.5,369.5C 78.1731,368.778 69.8398,368.611 61.5,369C 91.0183,407.504 128.352,435.837 173.5,454C 232.766,476.865 293.766,482.865 356.5,472C 374.031,469.531 391.031,465.364 407.5,459.5C 408.5,459.5 409.5,459.5 410.5,459.5C 371.489,489.177 327.489,506.51 278.5,511.5C 263.5,511.5 248.5,511.5 233.5,511.5C 148.775,502.069 83.2755,461.736 37,390.5C 32.8861,383.271 29.0527,375.937 25.5,368.5C 27.6353,366.631 30.3019,365.964 33.5,366.5C 38.5,366.5 43.5,366.5 48.5,366.5C 55.6458,348.043 65.6458,331.377 78.5,316.5C 92.3035,298.521 109.47,284.855 130,275.5C 134.206,276.528 135.539,279.195 134,283.5C 125.166,294.163 117.333,305.496 110.5,317.5 Z"/></g>
<g><path style="opacity:0.997" fill="#84d149" d="M 400.5,318.5 C 410.694,324.689 420.028,332.023 428.5,340.5C 436.063,348.739 443.063,357.573 449.5,367C 453.689,367.812 457.689,367.645 461.5,366.5C 469.833,366.5 478.167,366.5 486.5,366.5C 471.926,397.753 451.593,424.753 425.5,447.5C 375.396,440.639 326.729,427.805 279.5,409C 278.402,408.23 278.402,407.397 279.5,406.5C 303.123,397.07 327.123,389.07 351.5,382.5C 372.675,377.865 394.009,373.865 415.5,370.5C 405.902,351.617 394.569,333.95 381.5,317.5C 381.319,313.824 382.986,311.824 386.5,311.5C 391.73,312.782 396.397,315.115 400.5,318.5 Z"/></g>
<g><path style="opacity:1" fill="#3188ca" d="M 381.5,317.5 C 394.569,333.95 405.902,351.617 415.5,370.5C 394.009,373.865 372.675,377.865 351.5,382.5C 323.165,382.667 294.831,382.5 266.5,382C 263.098,380.6 260.264,378.433 258,375.5C 252.788,363.423 256.288,354.923 268.5,350C 295.167,349.667 321.833,349.333 348.5,349C 357.108,344.959 360.941,338.126 360,328.5C 364.323,319.421 371.49,315.754 381.5,317.5 Z"/></g>
<g><path style="opacity:1" fill="#3489c6" d="M 400.5,318.5 C 405.64,317.512 410.974,317.179 416.5,317.5C 421.261,324.686 425.261,332.353 428.5,340.5C 420.028,332.023 410.694,324.689 400.5,318.5 Z"/></g>
<g><path style="opacity:1" fill="#358aca" d="M 486.5,317.5 C 492.598,316.883 498.265,317.55 503.5,319.5C 501.812,328.558 499.145,337.225 495.5,345.5C 493.308,335.924 490.308,326.591 486.5,317.5 Z"/></g>
<g><path style="opacity:1" fill="#a2e96d" d="M 86.5,369.5 C 103.336,372.496 120.336,375.329 137.5,378C 178.171,387.391 217.838,399.891 256.5,415.5C 304.908,436.851 355.242,451.518 407.5,459.5C 391.031,465.364 374.031,469.531 356.5,472C 293.766,482.865 232.766,476.865 173.5,454C 128.352,435.837 91.0183,407.504 61.5,369C 69.8398,368.611 78.1731,368.778 86.5,369.5 Z"/></g>
<g><path style="opacity:1" fill="#61b550" d="M 279.5,406.5 C 278.402,407.397 278.402,408.23 279.5,409C 326.729,427.805 375.396,440.639 425.5,447.5C 421.087,452.21 416.087,456.21 410.5,459.5C 409.5,459.5 408.5,459.5 407.5,459.5C 355.242,451.518 304.908,436.851 256.5,415.5C 263.854,411.933 271.521,408.933 279.5,406.5 Z"/></g>
</svg>
