<svg enable-background="new 0 0 512 512" height="512" viewBox="0 0 512 512" width="512" xmlns="http://www.w3.org/2000/svg"><g id="BULINE"><circle id="XMLID_3421_" cx="256" cy="256" fill="#4a4b9b" r="256"/></g><g id="Icons"><g id="XMLID_1037_"><g id="XMLID_2533_"><path id="XMLID_2553_" d="m349.109 310.334c0 49.839-23.449 94.2-59.922 122.648-26.352 20.568-59.518 32.815-95.541 32.815-16.324 0-32.06-2.515-46.844-7.179-62.97-19.875-108.618-78.745-108.618-148.284 0-42.828 17.314-81.61 45.336-109.723 28.143-28.258 67.093-45.739 110.127-45.739 28.997 0 56.134 7.933 79.362 21.757 45.571 27.099 76.1 76.84 76.1 133.705z" fill="#41c2e5"/><path id="XMLID_2552_" d="m130.394 293.881s5.335 30.033-22.1 29.721c0 0-43.438-5.274-35.055 18.541 0 0 40.39-5.274 44.2 24.897 0 0 21.338 33.341 6.859 48.521 0 0 1.082 25.743 22.504 43.057-62.97-19.875-108.618-78.745-108.618-148.284 0-42.828 17.314-81.61 45.336-109.723 13.641.16 41.906 4.283 43.065 35.604 0 0 40.39 21.147 18.29 40.39-.001 0 12.192 17.589-14.481 17.276z" fill="#00b764"/><path id="XMLID_2551_" d="m349.109 310.334c0 49.839-23.449 94.2-59.922 122.648-4.412-23.495-27.442-41.106-27.442-41.106-35.543-40.39 0-57.155 0-57.155 27.709-2.286 41.64-22.298 41.64-22.298-.762-13.146-41.64-6.097-41.64-6.097-28.836 14.937-35.61-5.003-37.171-16.728-.531-3.987 1.088-7.98 4.257-10.457 13.124-10.259 7.491-25.65 7.491-25.65-23.624 4.123-14.479-24.135-14.479-24.135-6.097-24.577 19.814-32.769 19.814-32.769 1.135-14.457 16.324-19.021 31.352-19.959 45.571 27.1 76.1 76.841 76.1 133.706z" fill="#00b764"/><path id="XMLID_2550_" d="m237.94 385.018s-10.018-9.494-12.806 10.821c0 0-26.307 16.674-2.779 20.023 0 0 24.561-2.512 15.585-30.844z" fill="#00b764"/><path id="XMLID_2549_" d="m147.922 195.829s28.197-15.69 25.91 22.354c0 0 17.528 44.514-8.383 27.943 0 0-18.785-8.069-13.965-14.987.001-.001-14.993-22.549-3.562-35.31z" fill="#00b764"/><path id="XMLID_2548_" d="m231.376 461.186c-12.079 3.01-24.714 4.611-37.73 4.611-16.324 0-32.06-2.515-46.844-7.179-62.97-19.875-108.618-78.745-108.618-148.284 0-42.828 17.314-81.61 45.336-109.723 28.143-28.258 67.093-45.74 110.127-45.74 13.001 0 25.636 1.593 37.715 4.611-24.661 6.15-46.989 18.183-65.409 34.529-2.393 2.126-4.725 4.329-6.988 6.6-5.03 5.045-9.709 10.433-14.007 16.125-5.243 6.935-9.915 14.319-13.946 22.092-11.111 21.407-17.383 45.724-17.383 71.505 0 4.313.175 8.589.518 12.81 5.213 63.877 49.032 116.833 108.1 135.473 3.002.947 6.05 1.808 9.129 2.57z" fill="#32aac6"/><path id="XMLID_2547_" d="m146.802 458.618c-62.97-19.875-108.618-78.745-108.618-148.284 0-42.828 17.314-81.61 45.336-109.723 13.641.16 41.906 4.283 43.065 35.604 0 0 1.798.945 4.428 2.614-11.111 21.407-17.383 45.724-17.383 71.505 0 4.313.175 8.589.518 12.81-1.76.32-3.711.48-5.853.457 0 0-43.438-5.274-35.055 18.541 0 0 40.39-5.274 44.2 24.897 0 0 21.338 33.341 6.859 48.521-.001.001 1.081 25.744 22.503 43.058z" fill="#049b53"/><path id="XMLID_2546_" d="m165.952 194.012c-2.393 2.126-4.725 4.329-6.988 6.6-5.03 5.045-9.709 10.433-14.007 16.125-1.951-6.92-2.355-14.967 2.964-20.904.001 0 10.38-5.776 18.031-1.821z" fill="#049b53"/><g fill="#048444"><ellipse id="XMLID_2545_" cx="101.155" cy="235.523" rx="8.663" ry="14.3"/><ellipse id="XMLID_2544_" cx="92.493" cy="370.784" rx="5.083" ry="8.39"/><ellipse id="XMLID_2543_" cx="102.658" cy="406.676" rx="8.39" ry="5.083" transform="matrix(.914 -.405 .405 .914 -156.016 76.507)"/><ellipse id="XMLID_2542_" cx="65.364" cy="251.884" rx="8.39" ry="5.083" transform="matrix(.914 -.405 .405 .914 -96.479 48.108)"/><ellipse id="XMLID_2541_" cx="276.312" cy="356.059" rx="8.39" ry="5.083" transform="matrix(.914 -.405 .405 .914 -120.598 142.544)"/><ellipse id="XMLID_2540_" cx="307.195" cy="235.523" rx="5.083" ry="8.39" transform="matrix(.938 -.347 .347 .938 -62.609 121.135)"/><ellipse id="XMLID_2539_" cx="305.275" cy="384.205" rx="14.626" ry="8.861" transform="matrix(.914 -.405 .405 .914 -129.52 156.698)"/><ellipse id="XMLID_2538_" cx="161.626" cy="221.223" rx="8.39" ry="5.083" transform="matrix(.914 -.405 .405 .914 -75.791 84.491)"/><ellipse id="XMLID_2537_" cx="68.705" cy="293.296" rx="17.994" ry="10.901" transform="matrix(.97 -.245 .245 .97 -69.682 25.73)"/><ellipse id="XMLID_2536_" cx="268.368" cy="275.571" rx="17.994" ry="10.901" transform="matrix(.97 -.245 .245 .97 -59.275 74.049)"/><ellipse id="XMLID_2535_" cx="266.953" cy="221.223" rx="10.901" ry="17.994" transform="matrix(.874 -.486 .486 .874 -73.89 157.747)"/><ellipse id="XMLID_2534_" cx="323.96" cy="325.83" rx="17.994" ry="10.901" transform="matrix(.317 -.949 .949 .317 -87.664 529.988)"/></g></g><g id="XMLID_2451_"><path id="XMLID_2531_" d="m370.546 132.881h17.551v8.568h-17.551z" fill="#366fcc" transform="matrix(-.707 -.707 .707 -.707 550.552 502.376)"/><path id="XMLID_2530_" d="m470.669 37.748 8.62 8.62c6.225 6.225 6.225 16.319 0 22.544l-5.94 5.94-31.164-31.164 5.94-5.94c6.225-6.225 16.319-6.225 22.544 0z" fill="#366fcc"/><path id="XMLID_2529_" d="m466.533 41.885 8.62 8.62c6.225 6.225 6.225 16.319 0 22.544l-5.94 5.94-31.164-31.164 5.94-5.94c6.225-6.225 16.318-6.225 22.544 0z" fill="#2b5a9e"/><path id="XMLID_2528_" d="m346.558 155.521h25.032v4.782h-25.032z" fill="#fff" transform="matrix(.707 -.707 .707 .707 -6.491 300.155)"/><path id="XMLID_2527_" d="m348.533 165.072 5.681-5.681c.767.32 1.484.794 2.107 1.418.568.568 1.012 1.216 1.332 1.906l-5.739 5.739z" fill="#afafaf"/><path id="XMLID_2526_" d="m440.384 108.297h15.645v12.209h-15.645z" fill="#fff" transform="matrix(.707 .707 -.707 .707 212.171 -283.422)"/><path id="XMLID_2525_" d="m465.884 169.405-26.935-26.935c-2.139-2.139-2.139-5.608 0-7.747l29.578-29.578c2.139-2.139 5.608-2.139 7.747 0l26.935 26.935c2.139 2.139 2.139 5.608 0 7.747l-29.578 29.578c-2.139 2.139-5.608 2.139-7.747 0z" fill="#fff"/><path id="XMLID_2524_" d="m468.942 163.569-24.158-24.158c-.624-.624-.624-1.636 0-2.26l26.171-26.171c.624-.624 1.636-.624 2.26 0l24.158 24.158c.624.624.624 1.636 0 2.26l-26.171 26.171c-.624.624-1.636.624-2.26 0z" fill="#7ccafd"/><path id="XMLID_2523_" d="m448.872 111.814h5.7v12.209h-5.7z" fill="#bfc0c1" transform="matrix(.707 .707 -.707 .707 215.687 -284.879)"/><circle id="XMLID_2522_" cx="471.079" cy="137.275" fill="#76bde5" r="15.67"/><path id="XMLID_2521_" d="m471.025 122.771-4.869-4.869c-.586-.586-.586-1.536 0-2.122l4.869-4.869c.586-.586 1.536-.586 2.122 0l4.869 4.869c.586.586.586 1.536 0 2.122l-4.869 4.869c-.586.586-1.536.586-2.122 0z" fill="#3588cd"/><path id="XMLID_2520_" d="m480.738 132.485-4.869-4.869c-.586-.586-.586-1.536 0-2.122l4.869-4.869c.586-.586 1.536-.586 2.122 0l4.869 4.869c.586.586.586 1.536 0 2.122l-4.869 4.869c-.586.586-1.536.586-2.122 0z" fill="#3588cd"/><path id="XMLID_2519_" d="m490.451 142.198-4.869-4.869c-.586-.586-.586-1.536 0-2.122l4.869-4.869c.586-.586 1.536-.586 2.122 0l4.869 4.869c.586.586.586 1.536 0 2.122l-4.869 4.869c-.586.586-1.536.586-2.122 0z" fill="#366fcc"/><path id="XMLID_2518_" d="m460.306 133.49-4.869-4.869c-.586-.586-.586-1.536 0-2.122l4.869-4.869c.586-.586 1.536-.586 2.122 0l4.869 4.869c.586.586.586 1.536 0 2.122l-4.869 4.869c-.587.586-1.537.586-2.122 0z" fill="#366fcc"/><path id="XMLID_2517_" d="m470.019 143.204-4.869-4.869c-.586-.586-.586-1.536 0-2.122l4.869-4.869c.586-.586 1.536-.586 2.122 0l4.869 4.869c.586.586.586 1.536 0 2.122l-4.869 4.869c-.586.586-1.536.586-2.122 0z" fill="#3588cd"/><path id="XMLID_2516_" d="m479.732 152.917-4.869-4.869c-.586-.586-.586-1.536 0-2.122l4.869-4.869c.586-.586 1.536-.586 2.122 0l4.869 4.869c.586.586.586 1.536 0 2.122l-4.869 4.869c-.586.586-1.536.586-2.122 0z" fill="#3588cd"/><path id="XMLID_2515_" d="m449.586 144.21-4.869-4.869c-.586-.586-.586-1.536 0-2.122l4.869-4.869c.586-.586 1.536-.586 2.122 0l4.869 4.869c.586.586.586 1.536 0 2.122l-4.869 4.869c-.586.586-1.536.586-2.122 0z" fill="#3588cd"/><path id="XMLID_2514_" d="m459.3 153.923-4.869-4.869c-.586-.586-.586-1.536 0-2.122l4.869-4.869c.586-.586 1.536-.586 2.122 0l4.869 4.869c.586.586.586 1.536 0 2.122l-4.869 4.869c-.586.586-1.536.586-2.122 0z" fill="#3588cd"/><path id="XMLID_2513_" d="m469.013 163.636-4.869-4.869c-.586-.586-.586-1.536 0-2.122l4.869-4.869c.586-.586 1.536-.586 2.122 0l4.869 4.869c.586.586.586 1.536 0 2.122l-4.869 4.869c-.586.586-1.536.586-2.122 0z" fill="#366fcc"/><g fill="#3368b5"><path id="XMLID_2512_" d="m474.163 121.752-1.091 1.091c-.545.545-1.43.545-1.976 0l-5.012-5.012c-.548-.548-.548-1.433-.003-1.978l5.012-5.012c.548-.548 1.433-.548 1.981 0l1.137 1.137-3.923 3.923c-.545.545-.543 1.433.003 1.978z"/><path id="XMLID_2511_" d="m483.878 131.466-1.091 1.091c-.545.545-1.43.545-1.976 0l-5.012-5.012c-.548-.548-.548-1.433-.003-1.978l5.012-5.012c.548-.548 1.433-.548 1.981 0l1.137 1.137-3.923 3.923c-.545.545-.543 1.433.003 1.978z"/><path id="XMLID_2510_" d="m493.592 141.18-1.091 1.091c-.545.545-1.43.545-1.976 0l-5.012-5.012c-.548-.548-.548-1.433-.003-1.978l5.012-5.012c.548-.548 1.433-.548 1.981 0l1.137 1.137-3.923 3.923c-.545.545-.543 1.433.003 1.978z"/><path id="XMLID_2509_" d="m482.872 151.9-1.091 1.091c-.545.545-1.43.545-1.976 0l-5.012-5.012c-.548-.548-.548-1.433-.003-1.978l5.012-5.012c.548-.548 1.433-.548 1.981 0l1.137 1.137-3.923 3.923c-.545.545-.543 1.433.003 1.978z"/><path id="XMLID_2508_" d="m472.152 162.62-1.091 1.091c-.545.545-1.43.545-1.976 0l-5.012-5.012c-.548-.548-.548-1.433-.003-1.978l5.012-5.012c.548-.548 1.433-.548 1.981 0l1.137 1.137-3.923 3.923c-.545.545-.543 1.433.003 1.978z"/><path id="XMLID_2507_" d="m462.438 152.906-1.091 1.091c-.545.545-1.43.545-1.976 0l-5.012-5.012c-.548-.548-.548-1.433-.003-1.978l5.012-5.012c.548-.548 1.433-.548 1.981 0l1.137 1.137-3.923 3.923c-.545.545-.543 1.433.003 1.978z"/><path id="XMLID_2506_" d="m473.158 142.186-1.091 1.091c-.545.545-1.43.545-1.976 0l-5.012-5.012c-.548-.548-.548-1.433-.003-1.978l5.012-5.012c.548-.548 1.433-.548 1.981 0l1.137 1.137-3.923 3.923c-.545.545-.543 1.433.003 1.978z"/><path id="XMLID_2505_" d="m463.444 132.473-1.091 1.091c-.545.545-1.43.545-1.976 0l-5.012-5.012c-.548-.548-.548-1.433-.003-1.978l5.012-5.012c.548-.548 1.433-.548 1.981 0l1.137 1.137-3.923 3.923c-.545.545-.543 1.433.003 1.978z"/><path id="XMLID_2504_" d="m452.725 143.193-1.091 1.091c-.545.545-1.43.545-1.976 0l-5.012-5.012c-.548-.548-.548-1.433-.003-1.978l5.012-5.012c.548-.548 1.433-.548 1.981 0l1.137 1.137-3.923 3.923c-.545.545-.543 1.433.003 1.978z"/></g><circle id="XMLID_2503_" cx="475.198" cy="116.654" fill="#7fc7f7" r="1.455"/><circle id="XMLID_2502_" cx="484.693" cy="126.148" fill="#7fc7f7" r="1.455"/><circle id="XMLID_2501_" cx="494.641" cy="136.096" fill="#7fc7f7" r="1.455"/><circle id="XMLID_2500_" cx="464.564" cy="127.288" fill="#7fc7f7" r="1.455"/><circle id="XMLID_2499_" cx="474.059" cy="136.783" fill="#7fc7f7" r="1.455"/><circle id="XMLID_2498_" cx="484.007" cy="146.731" fill="#7fc7f7" r="1.455"/><circle id="XMLID_2497_" cx="453.93" cy="137.922" fill="#7fc7f7" r="1.455"/><circle id="XMLID_2496_" cx="463.424" cy="147.417" fill="#7fc7f7" r="1.455"/><circle id="XMLID_2495_" cx="473.373" cy="157.365" fill="#7fc7f7" r="1.455"/><path id="XMLID_2494_" d="m394.905 62.819h15.645v12.209h-15.645z" fill="#fff" transform="matrix(-.707 -.707 .707 -.707 638.763 402.431)"/><path id="XMLID_2493_" d="m385.05 13.921 26.935 26.935c2.139 2.139 2.139 5.608 0 7.747l-29.578 29.578c-2.139 2.139-5.608 2.139-7.747 0l-26.935-26.935c-2.139-2.139-2.139-5.608 0-7.747l29.578-29.578c2.139-2.14 5.608-2.14 7.747 0z" fill="#fff"/><path id="XMLID_2492_" d="m381.992 19.757 24.158 24.158c.624.624.624 1.636 0 2.26l-26.171 26.171c-.624.624-1.636.624-2.26 0l-24.158-24.158c-.624-.624-.624-1.636 0-2.26l26.171-26.171c.624-.624 1.636-.624 2.26 0z" fill="#7ccafd"/><path id="XMLID_2491_" d="m396.361 59.303h5.7v12.209h-5.7z" fill="#bfc0c1" transform="matrix(-.707 -.707 .707 -.707 635.247 393.942)"/><circle id="XMLID_2490_" cx="379.855" cy="46.051" fill="#76bde5" r="15.67"/><path id="XMLID_2489_" d="m467.519 48.127 1.339 1.339c9.932 9.932 9.932 26.034 0 35.966l-58.33 58.33c-5.122 5.122-13.426 5.122-18.548 0l-18.757-18.757c-5.122-5.122-5.122-13.426 0-18.548l58.33-58.33c9.931-9.932 26.034-9.932 35.966 0z" fill="#7ccafd"/><path id="XMLID_2488_" d="m432.591 47.089.17-.17c9.265-9.265 24.284-9.265 33.551.003l3.751 3.751c9.267 9.267 9.267 24.287.003 33.551l-60.162 60.162c-4.778 4.778-12.527 4.778-17.304 0l-2.668-2.668 52.775-52.775c9.265-9.265 9.267-24.287 0-33.554l-3.751-3.751c-1.911-1.912-4.065-3.428-6.365-4.549z" fill="#41c2e5"/><path id="XMLID_2487_" d="m379.91 60.554 4.869 4.869c.586.586.586 1.536 0 2.122l-4.869 4.869c-.586.586-1.536.586-2.122 0l-4.869-4.869c-.586-.586-.586-1.536 0-2.122l4.869-4.869c.586-.586 1.536-.586 2.122 0z" fill="#3588cd"/><path id="XMLID_2486_" d="m370.196 50.841 4.869 4.869c.586.586.586 1.536 0 2.122l-4.869 4.869c-.586.586-1.536.586-2.122 0l-4.869-4.869c-.586-.586-.586-1.536 0-2.122l4.869-4.869c.586-.586 1.536-.586 2.122 0z" fill="#3588cd"/><path id="XMLID_2485_" d="m360.483 41.128 4.869 4.869c.586.586.586 1.536 0 2.122l-4.869 4.869c-.586.586-1.536.586-2.122 0l-4.869-4.869c-.586-.586-.586-1.536 0-2.122l4.869-4.869c.586-.586 1.536-.586 2.122 0z" fill="#366fcc"/><path id="XMLID_2484_" d="m390.629 49.835 4.869 4.869c.586.586.586 1.536 0 2.122l-4.869 4.869c-.586.586-1.536.586-2.122 0l-4.869-4.869c-.586-.586-.586-1.536 0-2.122l4.869-4.869c.586-.586 1.536-.586 2.122 0z" fill="#366fcc"/><path id="XMLID_2483_" d="m380.915 40.122 4.869 4.869c.586.586.586 1.536 0 2.122l-4.869 4.869c-.586.586-1.536.586-2.122 0l-4.869-4.869c-.586-.586-.586-1.536 0-2.122l4.869-4.869c.586-.586 1.536-.586 2.122 0z" fill="#3588cd"/><path id="XMLID_2482_" d="m371.202 30.408 4.869 4.869c.586.586.586 1.536 0 2.122l-4.869 4.869c-.586.586-1.536.586-2.122 0l-4.869-4.869c-.586-.586-.586-1.536 0-2.122l4.869-4.869c.586-.586 1.536-.586 2.122 0z" fill="#3588cd"/><path id="XMLID_2481_" d="m401.348 39.116 4.869 4.869c.586.586.586 1.536 0 2.122l-4.869 4.869c-.586.586-1.536.586-2.122 0l-4.869-4.869c-.586-.586-.586-1.536 0-2.122l4.869-4.869c.586-.586 1.536-.586 2.122 0z" fill="#3588cd"/><path id="XMLID_2480_" d="m391.634 29.403 4.869 4.869c.586.586.586 1.536 0 2.122l-4.869 4.869c-.586.586-1.536.586-2.122 0l-4.869-4.869c-.586-.586-.586-1.536 0-2.122l4.869-4.869c.586-.586 1.536-.586 2.122 0z" fill="#3588cd"/><path id="XMLID_2479_" d="m381.921 19.689 4.869 4.869c.586.586.586 1.536 0 2.122l-4.869 4.869c-.586.586-1.536.586-2.122 0l-4.869-4.869c-.586-.586-.586-1.536 0-2.122l4.869-4.869c.586-.586 1.536-.586 2.122 0z" fill="#366fcc"/><path id="XMLID_2478_" d="m376.771 61.573 1.091-1.091c.545-.545 1.43-.545 1.976 0l5.012 5.012c.548.548.548 1.433.003 1.978l-5.012 5.012c-.548.548-1.433.548-1.981 0l-1.137-1.137 3.923-3.923c.545-.545.543-1.433-.003-1.978z" fill="#3368b5"/><path id="XMLID_2477_" d="m367.057 51.859 1.091-1.091c.545-.545 1.43-.545 1.976 0l5.012 5.012c.548.548.548 1.433.003 1.978l-5.012 5.012c-.548.548-1.433.548-1.981 0l-1.137-1.137 3.923-3.923c.545-.545.543-1.433-.003-1.978z" fill="#3368b5"/><path id="XMLID_2476_" d="m357.342 42.145 1.091-1.091c.545-.545 1.43-.545 1.976 0l5.012 5.012c.548.548.548 1.433.003 1.978l-5.012 5.012c-.548.548-1.433.548-1.981 0l-1.137-1.137 3.923-3.923c.545-.545.543-1.433-.003-1.978z" fill="#3368b5"/><path id="XMLID_2475_" d="m368.062 31.425 1.091-1.091c.545-.545 1.43-.545 1.976 0l5.012 5.012c.548.548.548 1.433.003 1.978l-5.012 5.012c-.548.548-1.433.548-1.981 0l-1.137-1.137 3.923-3.923c.545-.545.543-1.433-.003-1.978z" fill="#3368b5"/><path id="XMLID_2474_" d="m378.782 20.705 1.091-1.091c.545-.545 1.43-.545 1.976 0l5.012 5.012c.548.548.548 1.433.003 1.978l-5.012 5.012c-.548.548-1.433.548-1.981 0l-1.137-1.137 3.923-3.923c.545-.545.543-1.433-.003-1.978z" fill="#3368b5"/><path id="XMLID_2473_" d="m388.496 30.42 1.091-1.091c.545-.545 1.43-.545 1.976 0l5.012 5.012c.548.548.548 1.433.003 1.978l-5.012 5.012c-.548.548-1.433.548-1.981 0l-1.137-1.137 3.923-3.923c.545-.545.543-1.433-.003-1.978z" fill="#3368b5"/><path id="XMLID_2472_" d="m377.776 41.139 1.091-1.091c.545-.545 1.43-.545 1.976 0l5.012 5.012c.548.548.548 1.433.003 1.978l-5.012 5.012c-.548.548-1.433.548-1.981 0l-1.137-1.137 3.923-3.923c.545-.545.543-1.433-.003-1.978z" fill="#3368b5"/><path id="XMLID_2470_" d="m387.49 50.853 1.091-1.091c.545-.545 1.43-.545 1.976 0l5.012 5.012c.548.548.548 1.433.003 1.978l-5.012 5.012c-.548.548-1.433.548-1.981 0l-1.137-1.137 3.923-3.923c.545-.545.543-1.433-.003-1.978z" fill="#3368b5"/><path id="XMLID_2469_" d="m398.21 40.133 1.091-1.091c.545-.545 1.43-.545 1.976 0l5.012 5.012c.548.548.548 1.433.003 1.978l-5.012 5.012c-.548.548-1.433.548-1.981 0l-1.137-1.137 3.923-3.923c.545-.545.543-1.433-.003-1.978z" fill="#3368b5"/><circle id="XMLID_2468_" cx="375.736" cy="66.671" fill="#7fc7f7" r="1.455"/><circle id="XMLID_2467_" cx="366.241" cy="57.177" fill="#7fc7f7" r="1.455"/><circle id="XMLID_2466_" cx="356.293" cy="47.229" fill="#7fc7f7" r="1.455"/><circle id="XMLID_2465_" cx="386.37" cy="56.037" fill="#7fc7f7" r="1.455"/><circle id="XMLID_2464_" cx="376.876" cy="46.543" fill="#7fc7f7" r="1.455"/><circle id="XMLID_2463_" cx="366.927" cy="36.595" fill="#7fc7f7" r="1.455"/><circle id="XMLID_2462_" cx="397.004" cy="45.403" fill="#7fc7f7" r="1.455"/><circle id="XMLID_2461_" cx="387.51" cy="35.909" fill="#7fc7f7" r="1.455"/><circle id="XMLID_2460_" cx="377.562" cy="25.961" fill="#7fc7f7" r="1.455"/><circle id="XMLID_2459_" cx="384.14" cy="113.667" fill="#a6dfff" r="9.46"/><circle id="XMLID_2458_" cx="393.422" cy="104.385" fill="#c3eafc" r="7.006"/><path id="XMLID_2457_" d="m357.178 121.08 38.872 38.872c6.55 6.55 6.55 17.168 0 23.718l-62.59-62.59c6.549-6.549 17.168-6.549 23.718 0z" fill="#fff"/><path id="XMLID_2456_" d="m342.565 116.395c.913-.152 1.834-.229 2.755-.229 4.291 0 8.585 1.641 11.859 4.915l38.87 38.87c6.55 6.55 6.55 17.168 0 23.718l-8.056-8.056c2.399-6.034 1.156-13.186-3.726-18.067l-38.873-38.873c-.877-.877-1.826-1.638-2.829-2.278z" fill="#c9c9c9"/><circle id="XMLID_2455_" cx="349.841" cy="167.289" fill="#fff" r="6.63"/><path id="XMLID_2454_" d="m348.859 160.731c2.008-.298 4.126.325 5.67 1.87 2.59 2.59 2.59 6.787 0 9.377-2.242 2.242-5.692 2.543-8.257.905 1.354-.201 2.661-.825 3.707-1.87 2.59-2.59 2.59-6.787 0-9.377-.348-.348-.726-.649-1.12-.905z" fill="#c9c9c9"/><path id="XMLID_2453_" d="m361.144 151.827h4.78v3.248h-4.78z" fill="#bfc0c1" transform="matrix(-.707 -.707 .707 -.707 512.085 519.014)"/><path id="XMLID_2452_" d="m368.316 138.264h17.551v2.261h-17.551z" fill="#2b5a9e" transform="matrix(-.707 -.707 .707 -.707 545.168 504.606)"/></g><g fill="#3c3c56"><circle id="XMLID_2606_" cx="134.78" cy="113.667" r="12.78"/><circle id="XMLID_2608_" cx="413.59" cy="230.794" r="12.78"/><circle id="XMLID_2609_" cx="359.074" cy="440" r="12.78"/><circle id="XMLID_2610_" cx="312.153" cy="45.044" r="12.78"/><circle id="XMLID_2611_" cx="26" cy="226.981" r="12.78"/></g></g><g><g id="XMLID_1287_"><path id="XMLID_1288_" d="m305.935 170.297c1.357 1.357 2.197 3.232 2.197 5.304-.001 13.019 10.592 23.612 23.612 23.612 4.142 0 7.5 3.358 7.5 7.5s-3.358 7.5-7.5 7.5c-21.291.001-38.612-17.32-38.613-38.613 0-4.142 3.358-7.5 7.5-7.5 2.071 0 3.947.84 5.304 2.197z" fill="#fff"/></g><g id="XMLID_1285_"><path id="XMLID_1286_" d="m266.531 176.686c1.358 1.358 2.197 3.232 2.197 5.304 0 15.125 5.89 29.346 16.585 40.041s24.916 16.585 40.042 16.586c4.142 0 7.5 3.358 7.5 7.5s-3.358 7.5-7.5 7.5c-19.133 0-37.12-7.45-50.648-20.979-13.529-13.529-20.979-31.516-20.979-50.649 0-4.142 3.358-7.5 7.5-7.5 2.071 0 3.946.84 5.303 2.197z" fill="#fff"/></g><g id="XMLID_1283_"><path id="XMLID_1284_" d="m318.062 274.009c1.357 1.357 2.197 3.232 2.197 5.303 0 4.142-3.358 7.5-7.5 7.5-50.854 0-92.227-41.372-92.228-92.228 0-4.142 3.358-7.5 7.5-7.5 4.143.001 7.5 3.358 7.501 7.501-.001 42.582 34.644 77.227 77.227 77.227 2.071.001 3.946.84 5.303 2.197z" fill="#fff"/></g></g></g></svg>