<svg id="Capa_1" enable-background="new 0 0 512 512" height="512" viewBox="0 0 512 512" width="512" xmlns="http://www.w3.org/2000/svg"><g><g><path d="m446.16 84.62-14.49 32.7c-75 169.28-308.13 187.25-408.2 31.48 3.11-6.76 6.52-13.37 10.21-19.8 44.12-77.07 127.16-129 222.32-129 75.47 0 143.31 32.66 190.16 84.62z" fill="#fff9bb"/><path d="m505.68 199.25-224.99 22.36c-16.42 1.63-32.96 1.63-49.38 0l-224.99-22.36c3.97-17.57 9.75-34.46 17.15-50.45 5.96 2.12 10.99 6.57 16.07 10.5 5.92 4.58 13.05 8.8 20.44 7.59 12.12-2 19.44-17.7 31.72-17.28 15.53.54 22.79 26.36 38.05 23.48 7.21-1.36 11.72-9 18.72-11.2 8.91-2.81 17.63 3.89 25.64 8.69 7.6 4.56 14.75 5.78 22.24 1.57 8.41-4.73 16.92-9.6 26.98-8.33 6.01.76 11.54 3.65 17.46 4.9 6.59 1.39 11.32-.65 15.21-4.37 9.28-8.89 13.71-27.37 27.09-31.6 16.18-5.12 32.49 13.8 48.89 9.41 10.3-2.75 15.94-13.45 21.19-22.73s13.32-19.2 23.96-18.46c9.12.64 15.64 9 19.85 17.12 4.21 8.11 7.78 17.25 15.43 22.25 17.42 11.41 28.7-7.13 44.97-11.5 7-1.88 14.88-1.69 21.45 1.07 1.86 3.27 3.65 6.59 5.35 9.95 9.5 18.6 16.77 38.51 21.5 59.39z" fill="#50ba4a"/><path d="m505.68 199.25-224.99 22.36c-8.21.81-16.45 1.22-24.69 1.22v-58.48c9.28-8.89 13.71-27.37 27.09-31.6 16.18-5.12 32.49 13.8 48.89 9.41 10.3-2.75 15.94-13.45 21.19-22.73s13.32-19.2 23.96-18.46c9.12.64 15.64 9 19.85 17.12 4.21 8.11 7.78 17.25 15.43 22.25 17.42 11.41 28.7-7.13 44.97-11.5 7-1.88 14.88-1.69 21.45 1.07 1.86 3.27 3.65 6.59 5.35 9.95 9.5 18.6 16.77 38.51 21.5 59.39z" fill="#00a23e"/><path d="m392.13 199.25c-85.6 133.53-279.47 154.6-390.97 32.25 1.04-10.97 2.77-21.73 5.16-32.25z" fill="#008839"/><g><path d="m512 256c0 14.91-1.28 29.53-3.73 43.74-1.22 7.12-2.74 14.14-4.55 21.04-2.79 10.71-6.26 21.15-10.36 31.26l-109.76 55.96c-43.32-6.67-86.19-15.3-127.6-27.74-6.45-1.94-12.86-3.97-19.23-6.1-15.51-5.19-30.99-10.7-45.42-18.49-3.55-1.91-7.18-3.55-10.82-5.15-9.41-4.13-18.83-7.93-26.72-15.22-6.04-5.58-11.21-12.72-12.13-20.9-.91-8.01 1.19-15.22 4.95-21.82 7.78-13.63 22.66-24.65 32.85-34.76 21.12-20.96 42.25-41.93 63.38-62.89 4.18-4.14 8.54-8.37 13.14-12.27 10.88-9.23 23.04-16.62 36.98-16.67 11.8-.04 22.85 5.3 34.28 8.2 12.33 3.13 31.47-8.2 51.87-24.84 11.64 14.38 34.57 10.23 40.44-7.31l15.21-45.51c4.01-4.16 7.82-8.17 11.38-11.91 12.23 13.56 23.03 28.43 32.16 44.38 12.39 21.63 21.7 45.25 27.36 70.25.27 1.2.54 2.4.79 3.61 3.46 16.36 5.35 33.28 5.52 50.62.01.84.01 1.68.01 2.52z" fill="#7e7f92"/><path d="m512 256c0 14.91-1.28 29.53-3.73 43.74-1.22 7.12-2.74 14.14-4.55 21.04-2.79 10.71-6.26 21.15-10.36 31.26l-109.76 55.96c-43.32-6.67-86.19-15.3-127.6-27.74v-197.6c10.88-9.23 23.04-16.62 36.98-16.67 11.8-.04 22.85 5.3 34.28 8.2 12.33 3.13 31.47-8.2 51.87-24.84 11.64 14.38 34.57 10.23 40.44-7.31l15.21-45.51c4.01-4.16 7.82-8.17 11.38-11.91 12.23 13.56 23.03 28.43 32.16 44.38 12.39 21.63 21.7 45.25 27.36 70.25.27 1.2.54 2.4.79 3.61 3.46 16.36 5.35 33.28 5.52 50.62.01.84.01 1.68.01 2.52z" fill="#6e6f83"/><path d="m512 256c0 14.91-1.28 29.53-3.73 43.74-1.22 7.12-2.74 14.14-4.55 21.04-2.79 10.71-6.26 21.15-10.36 31.26l-109.76 55.96c-43.32-6.67-86.19-15.3-127.6-27.74-6.45-1.94-12.86-3.97-19.23-6.1-2.67-.9-5.34-1.8-8-2.73-12.81-4.43-25.47-9.31-37.42-15.76-3.55-1.91-7.18-3.55-10.82-5.15 3.04-15.18 9.54-29.37 17.7-42.64 5.65-9.19 12.09-17.94 18.71-26.26 11.55-14.52 23.75-27.9 39.06-35.76 9.72-5 20.69-7.77 33.55-7.2 14.45.64 28.49 6.26 42.95 5.66 16.67-.68 31.86-9.53 45.44-19.23 33.29-23.78 61.55-54.06 94.94-77.7 3.67-2.6 7.44-5.12 11.3-7.53 9.5 18.6 16.77 38.51 21.5 59.39.27 1.2.54 2.4.79 3.61 3.46 16.36 5.35 33.28 5.52 50.62.01.84.01 1.68.01 2.52z" fill="#6e6f83"/><path d="m512 256c0 14.91-1.28 29.53-3.73 43.74-1.22 7.12-2.74 14.14-4.55 21.04-2.79 10.71-6.26 21.15-10.36 31.26l-109.76 55.96c-43.32-6.67-86.19-15.3-127.6-27.74v-134.4c9.72-5 20.69-7.77 33.55-7.2 14.45.64 28.49 6.26 42.95 5.66 16.67-.68 31.86-9.53 45.44-19.23 33.29-23.78 61.55-54.06 94.94-77.7 3.67-2.6 7.44-5.12 11.3-7.53 9.5 18.6 16.77 38.51 21.5 59.39.27 1.2.54 2.4.79 3.61 3.46 16.36 5.35 33.28 5.52 50.62.01.84.01 1.68.01 2.52z" fill="#605f74"/><path d="m512 256c0 14.91-1.28 29.53-3.73 43.74-1.22 7.12-2.74 14.14-4.55 21.04-2.79 10.71-6.26 21.15-10.36 31.26l-109.76 55.96c-50.06-7.7-99.51-18.03-146.83-33.84-2.67-.9-5.34-1.8-8-2.73 12.81-19.93 26.11-39.68 43.2-56.02 18.94-18.12 43.28-31.91 69.46-33.12 14.01-.65 27.98 2.29 42 1.92 42.65-1.11 78.01-31.62 110.03-59.81 4.79-4.22 9.7-8.46 14.73-12.61 2.37 13.56 3.66 27.49 3.8 41.69.01.84.01 1.68.01 2.52z" fill="#58586b"/></g><path d="m493.36 352.04c-9.63 23.8-22.74 45.82-38.7 65.43-3.08 3.79-6.26 7.48-9.55 11.08-3.06 3.35-6.21 6.62-9.44 9.8-109.89 45.05-235.85 23.34-324.32-55.89l-109.82-98.34c-.37-3.33-.67-6.69-.9-10.06-.42-5.96-.63-11.99-.63-18.06 0-8.27.39-16.44 1.16-24.5 20.69.78 41.32 2.64 61.6 6.88 38.68 8.09 70.85 35.11 109.18 43.91 19.11 4.39 43.6-1.93 63.41-1.31 6.89.21 13.79.65 20.65 1.39 15.53 1.66 30.88 4.85 45.55 10.35 11.57 4.33 22.52 10.02 33.35 15.98l44.23-159.35c6.13-5.01 12.38-10.5 18.6-16.22 2.78-2.55 5.55-5.15 8.29-7.79 10.09-9.64 19.9-19.61 28.76-28.81 2.6 47 10.62 192.36 13.85 253.08 14.78 1.78 29.68 2.48 44.73 2.43z" fill="#c5f2f9"/><path d="m493.36 352.04c-9.63 23.8-22.74 45.82-38.7 65.43-3.08 3.79-6.26 7.48-9.55 11.08-3.06 3.35-6.21 6.62-9.44 9.8-58.04 23.79-120.56 28.96-179.67 16.87v-172.85c15.53 1.66 30.88 4.85 45.55 10.35 11.57 4.33 22.52 10.02 33.35 15.98l44.23-159.35c6.13-5.01 12.38-10.5 18.6-16.22 2.78-2.55 5.55-5.15 8.29-7.79 10.09-9.64 19.9-19.61 28.76-28.81 2.6 47 10.62 192.36 13.85 253.08 14.78 1.78 29.68 2.48 44.73 2.43z" fill="#92eaff"/><path d="m459.95 410.72c-1.71 2.28-3.48 4.53-5.29 6.75-3.08 3.79-6.26 7.48-9.55 11.08-3.06 3.35-6.21 6.62-9.44 9.8-109.89 45.05-235.85 23.34-324.32-55.89l-109.82-98.34c-.37-3.33-.67-6.69-.9-10.06-.25-3.54-.43-7.11-.52-10.7 2.18-.12 4.37-.18 6.56-.2 14.1-.11 28.13 1.83 41.9 4.73 12.41 2.62 26.3 5.13 37.94 9.91 23.67 9.74 44.15 25.86 67.52 36.28 17.11 7.63 35.41 12.58 54.04 14.59 16 1.72 31.99.13 47.93.94 2.85.13 5.69.35 8.54.68 47.61 5.5 83.35 45.94 127.23 62.47 22.02 8.29 44.91 14.32 68.18 17.96z" fill="#92eaff"/><path d="m459.95 410.72c-1.71 2.28-3.48 4.53-5.29 6.75-3.08 3.79-6.26 7.48-9.55 11.08-3.06 3.35-6.2 6.61-9.43 9.79l-.01.01c-58.04 23.79-120.56 28.96-179.67 16.87v-125.61c2.85.13 5.69.35 8.54.68 47.61 5.5 83.35 45.94 127.23 62.47 8.54 3.21 17.21 6.09 25.98 8.61 2.68.78 5.37 1.52 8.07 2.23 2.75.72 5.51 1.4 8.28 2.05h.01c8.55 2.02 17.17 3.71 25.84 5.07z" fill="#63dbfa"/><path d="m435.89 438.12c-16.06 15.88-34.21 29.63-53.99 40.82h-.01l-18.75 4.92c-67.64 17.77-139.68 3.46-195.4-38.79l-158.33-120.07c-.39-1.4-.77-2.81-1.14-4.22-1.8-6.9-3.32-13.92-4.54-21.04-.89-5.15-1.63-10.36-2.2-15.62 30.51-3.36 62.39 9.25 89.85 24.64 33.02 18.51 64.82 41.67 102.1 48.22 20.54 3.62 41.81 1.96 62.52 3.7 7.97.66 15.86 1.84 23.59 4.01 32.37 9.1 57.39 34.3 86.9 50.42 21.56 11.78 45.15 18.53 69.4 23.01z" fill="#b6e337"/><path d="m435.89 438.12c-16.06 15.88-34.21 29.63-53.99 40.82l-.01.01v-.01l-18.75 4.92c-35.5 9.33-72.21 9.82-107.14 2.07v-125.25c7.97.66 15.86 1.84 23.59 4.01 32.37 9.1 57.39 34.3 86.9 50.42 21.56 11.78 45.15 18.53 69.4 23.01z" fill="#6cdc2d"/><path d="m381.9 478.94c-36.96 20.93-79.64 32.92-125.11 33.06h-.79c-74.9 0-142.29-32.17-189.11-83.45-14.46-15.84-26.96-33.5-37.1-52.61-8.53-16.04-15.39-33.09-20.38-50.94 15.6 2.28 30.7 6.4 44.56 14.89 34.3 21.02 66.05 58.71 104.67 69.99 31.46 9.19 65.02 7.66 97.36 12.76 5.42.84 10.81 1.88 16.14 3.18 39.63 9.69 73.9 33.37 109.76 53.12z" fill="#6cdc2d"/><path d="m381.89 478.94c-36.96 20.93-79.63 32.92-125.1 33.06h-.79v-89.36c5.42.84 10.81 1.88 16.14 3.18 39.63 9.69 73.89 33.37 109.75 53.12z" fill="#5dbf1d"/><path d="m448.63 349.608v.01c-17.12-2.06-34.08-5.58-50.9-11.1l8.29-213.18c10.09-9.64 19.9-19.61 28.76-28.81 2.6 47 10.62 192.36 13.85 253.08z" fill="#63dbfa"/><g><path d="m316.026 335.23c0-.052-.004-.103-.004-.155 0-9.531 7.726-17.257 17.257-17.257 2.264 0 4.424.441 6.406 1.233 3.827-6.856 11.149-11.495 19.558-11.495 10.92 0 20.009 7.82 21.985 18.165.589-.084 1.19-.13 1.803-.13 5.937 0 10.912 4.11 12.241 9.639z" fill="#fff"/><path d="m332.864 335.23c0-.03-.002-.059-.002-.089 0-5.481 4.443-9.923 9.923-9.923 1.302 0 2.544.253 3.683.709 2.201-3.942 6.411-6.61 11.246-6.61 6.279 0 11.506 4.497 12.642 10.445.339-.048.684-.075 1.036-.075 3.414 0 6.275 2.363 7.039 5.543z" fill="#dff7fd"/></g><g fill="#fff"><path d="m344.096 284.534c0 2.434-1.973 4.407-4.407 4.407s-4.407-1.973-4.407-4.407 1.973-4.407 4.407-4.407c2.433-.001 4.407 1.972 4.407 4.407z"/><circle cx="324.488" cy="306.432" r="2.361"/><circle cx="313.601" cy="285.637" r="2.361"/></g><g><path d="m467.513 357.218c0-.052.004-.103.004-.156 0-9.531-7.726-17.257-17.257-17.257-2.264 0-4.424.441-6.406 1.233-3.827-6.856-11.149-11.494-19.558-11.494-10.92 0-20.009 7.82-21.985 18.165-.589-.084-1.19-.13-1.802-.13-5.937 0-10.912 4.11-12.241 9.639z" fill="#fff"/><path d="m450.674 357.218c0-.03.002-.06.002-.09 0-5.48-4.443-9.923-9.923-9.923-1.302 0-2.544.253-3.683.709-2.201-3.942-6.411-6.61-11.247-6.61-6.279 0-11.506 4.497-12.642 10.445-.339-.048-.684-.075-1.036-.075-3.414 0-6.274 2.363-7.039 5.543h45.568z" fill="#dff7fd"/></g><circle cx="443.85" cy="306.521" fill="#fff" r="4.407"/><circle cx="459.051" cy="328.42" fill="#fff" r="2.361"/><circle cx="469.937" cy="307.625" fill="#fff" r="2.361"/><g><path d="m71.652 312.044h-17.938l.96-30.058 1.181-36.926h13.655l1.182 36.926z" fill="#ec771b"/><path d="m71.652 312.044h-8.626v-66.984h6.484l1.182 36.926z" fill="#c55732"/><path d="m63.026 245.06v36.926h-8.352l1.181-36.926z" fill="#c55732"/><path d="m70.692 281.986h-7.666v-36.926h6.484z" fill="#a44e3e"/><g><path d="m90.885 256.812c-7.715 7.595-17.787 11.392-27.859 11.392-10.07 0-20.143-3.797-27.859-11.392-12.308-12.113-14.769-30.249-7.385-44.772 7.722-15.188 15.788-30.199 22.351-45.923l12.893-30.892 12.871 30.83c6.574 15.747 14.65 30.783 22.38 45.997 7.378 14.52 4.914 32.65-7.392 44.76z" fill="#43af3e"/><path d="m90.885 256.812c-7.715 7.595-17.787 11.392-27.859 11.392-4.778 0-9.556-3.797-13.218-11.392-5.919-12.278-7.039-30.744-3.358-45.363 5.119-20.331 9.654-41.271 13.857-62.487l2.719-13.736 12.871 30.83c6.574 15.747 14.65 30.783 22.38 45.997 7.378 14.519 4.914 32.649-7.392 44.759z" fill="#00a23e"/><path d="m90.885 256.812c-7.715 7.595-17.787 11.392-27.859 11.392v-132.979l12.871 30.83c6.574 15.747 14.65 30.783 22.38 45.997 7.378 14.52 4.914 32.65-7.392 44.76z" fill="#008839"/></g></g><g><path d="m173.341 363.648h-18.04l.965-30.229 1.188-37.136h13.733l1.188 37.136z" fill="#ec771b"/><path d="m173.341 363.648h-8.675v-67.365h6.521l1.188 37.136z" fill="#c55732"/><path d="m164.666 296.283v37.136h-8.4l1.188-37.136z" fill="#c55732"/><path d="m172.375 333.419h-7.709v-37.136h6.521z" fill="#a44e3e"/><g><path d="m192.683 308.102c-7.759 7.638-17.888 11.457-28.017 11.457-10.128 0-20.257-3.819-28.018-11.457-12.377-12.182-14.853-30.421-7.427-45.026 7.766-15.274 15.878-30.371 22.478-46.184l12.967-31.068 12.944 31.005c6.612 15.837 14.734 30.958 22.507 46.258 7.42 14.604 4.942 32.837-7.434 45.015z" fill="#43af3e"/><path d="m192.683 308.102c-7.759 7.638-17.888 11.457-28.017 11.457-4.805 0-9.611-3.819-13.293-11.457-5.953-12.348-7.079-30.919-3.377-45.621 5.148-20.446 9.709-41.505 13.936-62.843l2.734-13.814 12.944 31.005c6.612 15.837 14.734 30.958 22.507 46.258 7.42 14.604 4.942 32.837-7.434 45.015z" fill="#00a23e"/><path d="m192.683 308.102c-7.759 7.638-17.888 11.457-28.017 11.457v-133.735l12.944 31.005c6.612 15.837 14.734 30.958 22.507 46.258 7.42 14.604 4.942 32.837-7.434 45.015z" fill="#008839"/></g></g><g><path d="m295.404 398.548h-18.04l.966-30.229 1.188-37.136h13.732l1.189 37.136z" fill="#ec771b"/><path d="m295.404 398.548h-8.675v-67.365h6.521l1.189 37.136z" fill="#c55732"/><path d="m286.729 331.183v37.136h-8.399l1.188-37.136z" fill="#c55732"/><path d="m294.439 368.319h-7.71v-37.136h6.521z" fill="#a44e3e"/><g><path d="m314.747 343.002c-7.759 7.638-17.888 11.457-28.017 11.457-10.128 0-20.257-3.819-28.017-11.457-12.378-12.182-14.853-30.421-7.427-45.026 7.767-15.274 15.878-30.371 22.478-46.184l12.967-31.068 12.944 31.005c6.612 15.837 14.734 30.958 22.507 46.258 7.418 14.604 4.941 32.836-7.435 45.015z" fill="#43af3e"/><path d="m314.747 343.002c-7.759 7.638-17.888 11.457-28.017 11.457-4.805 0-9.61-3.819-13.293-11.457-5.953-12.348-7.079-30.919-3.377-45.621 5.148-20.446 9.709-41.505 13.935-62.843l2.734-13.814 12.944 31.005c6.612 15.837 14.734 30.958 22.507 46.258 7.42 14.604 4.943 32.836-7.433 45.015z" fill="#00a23e"/><path d="m314.747 343.002c-7.759 7.638-17.888 11.457-28.017 11.457v-133.735l12.944 31.005c6.612 15.837 14.734 30.958 22.507 46.258 7.419 14.604 4.942 32.836-7.434 45.015z" fill="#008839"/></g></g><g><path d="m433.75 440.23c-5.45 5.26-11.13 10.28-17.03 15.04l.7-21.94 1.19-37.14h13.73l1.19 37.14z" fill="#ec771b"/><path d="m433.75 440.23c-2.59 2.5-5.24 4.95-7.93 7.34v-51.38h6.52l1.19 37.14z" fill="#c55732"/><path d="m425.823 396.195v37.136h-8.399l1.188-37.136z" fill="#c55732"/><path d="m433.533 433.331h-7.71v-37.136h6.522z" fill="#a44e3e"/><g><path d="m453.841 408.014c-7.759 7.638-17.888 11.457-28.017 11.457-10.128 0-20.257-3.819-28.017-11.457-12.378-12.182-14.853-30.421-7.427-45.026 7.766-15.274 15.878-30.371 22.478-46.184l12.967-31.068 12.944 31.005c6.612 15.837 14.734 30.958 22.507 46.258 7.418 14.603 4.941 32.836-7.435 45.015z" fill="#43af3e"/><path d="m453.841 408.014c-7.759 7.638-17.888 11.457-28.017 11.457-4.805 0-9.61-3.819-13.293-11.457-5.953-12.348-7.079-30.919-3.377-45.621 5.148-20.446 9.709-41.505 13.935-62.843l2.734-13.814 12.944 31.005c6.612 15.837 14.734 30.958 22.507 46.258 7.42 14.603 4.943 32.836-7.433 45.015z" fill="#00a23e"/><path d="m453.841 408.014c-7.759 7.638-17.888 11.457-28.017 11.457v-133.735l12.944 31.005c6.612 15.837 14.734 30.958 22.507 46.258 7.419 14.603 4.942 32.836-7.434 45.015z" fill="#008839"/></g></g></g><g><path d="m79.002 136.96c0-.078-.006-.154-.006-.232 0-14.204 11.514-25.718 25.718-25.718 3.374 0 6.594.657 9.546 1.838 5.703-10.217 16.615-17.13 29.147-17.13 16.274 0 29.82 11.655 32.763 27.071.878-.126 1.774-.194 2.686-.194 8.848 0 16.262 6.125 18.243 14.365z" fill="#ffeb98"/><path d="m104.095 136.96c0-.045-.003-.089-.003-.133 0-8.167 6.621-14.789 14.788-14.789 1.94 0 3.792.377 5.489 1.057 3.279-5.875 9.554-9.85 16.76-9.85 9.358 0 17.147 6.702 18.84 15.567.505-.072 1.02-.112 1.544-.112 5.088 0 9.351 3.522 10.49 8.26z" fill="#f9e073"/></g><g><path d="m214.837 69.995c0-.056-.004-.111-.004-.167 0-10.228 8.291-18.519 18.519-18.519 2.43 0 4.748.473 6.874 1.324 4.107-7.357 11.964-12.335 20.988-12.335 11.719 0 21.472 8.392 23.592 19.493.632-.091 1.277-.14 1.934-.14 6.371 0 11.71 4.41 13.136 10.344z" fill="#ffeb98"/><path d="m232.906 69.995c0-.032-.002-.064-.002-.096 0-5.881 4.768-10.649 10.649-10.649 1.397 0 2.73.272 3.953.761 2.361-4.23 6.88-7.093 12.069-7.093 6.738 0 12.347 4.826 13.566 11.209.363-.052.734-.081 1.112-.081 3.664 0 6.733 2.536 7.554 5.948h-48.901z" fill="#f9e073"/></g><g fill="#5dbf1d"><circle cx="52.303" cy="369.213" r="9.397"/><ellipse cx="128.651" cy="422.64" rx="9.398" ry="9.397" transform="matrix(.924 -.383 .383 .924 -151.944 81.404)"/><ellipse cx="225.447" cy="483.866" rx="9.397" ry="9.397" transform="matrix(.707 -.707 .707 .707 -276.113 301.137)"/></g><ellipse cx="346.265" cy="479.442" fill="#00a23e" rx="9.398" ry="9.397" transform="matrix(.924 -.383 .383 .924 -157.117 169.005)"/><path d="m91.591 418.5c0 3.721-3.016 6.737-6.737 6.737s-6.737-3.016-6.737-6.737 3.016-6.737 6.737-6.737c3.72 0 6.737 3.016 6.737 6.737z" fill="#5dbf1d"/><path d="m164.661 467.731c0 3.721-3.016 6.737-6.737 6.737s-6.737-3.016-6.737-6.737 3.016-6.737 6.737-6.737 6.737 3.016 6.737 6.737z" fill="#5dbf1d"/><path d="m209.13 443.077c0 3.721-3.016 6.737-6.737 6.737s-6.737-3.016-6.737-6.737 3.016-6.737 6.737-6.737c3.72 0 6.737 3.017 6.737 6.737z" fill="#5dbf1d"/><path d="m279.995 453.471c0 3.721-3.016 6.737-6.737 6.737s-6.737-3.016-6.737-6.737 3.016-6.737 6.737-6.737c3.72 0 6.737 3.016 6.737 6.737z" fill="#00a23e"/><path d="m286.732 496.104c0 3.721-3.016 6.737-6.737 6.737s-6.737-3.016-6.737-6.737 3.016-6.737 6.737-6.737 6.737 3.016 6.737 6.737z" fill="#00a23e"/><path d="m316.022 474.469c0 3.721-3.016 6.737-6.737 6.737s-6.737-3.016-6.737-6.737 3.016-6.737 6.737-6.737c3.72-.001 6.737 3.016 6.737 6.737z" fill="#00a23e"/></g></svg>